<?xml version="1.0" encoding="utf-8"?>
<svg width="28px" height="28px" viewBox="0 0 28 28" version="1.1" xmlns:xlink="http://www.w3.org/1999/xlink" xmlns="http://www.w3.org/2000/svg">
  <defs>
    <filter id="filter_1">
      <feColorMatrix in="SourceGraphic" type="matrix" values="0 0 0 0 0.52156866 0 0 0 0 0.52156866 0 0 0 0 0.52156866 0 0 0 1 0" />
    </filter>
    <path d="M0 0L28 0L28 28L0 28L0 0Z" id="path_1" />
    <clipPath id="mask_1">
      <use xlink:href="#path_1" />
    </clipPath>
  </defs>
  <g id="dash-lg" filter="url(#filter_1)">
    <path d="M0 0L28 0L28 28L0 28L0 0Z" id="Background" fill="none" fill-rule="evenodd" stroke="none" />
    <g clip-path="url(#mask_1)">
      <path d="M3.5 14C3.5 13.5168 3.89175 13.125 4.375 13.125L23.625 13.125C23.9376 13.125 24.2265 13.2918 24.3828 13.5625C24.5391 13.8332 24.5391 14.1668 24.3828 14.4375C24.2265 14.7082 23.9376 14.875 23.625 14.875L4.375 14.875C3.89175 14.875 3.5 14.4832 3.5 14L3.5 14Z" id="Shape" fill="#000000" fill-rule="evenodd" stroke="none" />
    </g>
  </g>
</svg>