<?xml version="1.0" encoding="utf-8"?>
<svg width="20px" height="20px" viewBox="0 0 20 20" version="1.1" xmlns:xlink="http://www.w3.org/1999/xlink" xmlns="http://www.w3.org/2000/svg">
  <defs>
    <filter id="filter_1">
      <feColorMatrix in="SourceGraphic" type="matrix" values="0 0 0 0 0.34509805 0 0 0 0 0.39607844 0 0 0 0 0.9490196 0 0 0 1 0" />
    </filter>
    <path d="M0 0L20 0L20 20L0 20L0 0Z" id="path_1" />
    <clipPath id="mask_1">
      <use xlink:href="#path_1" />
    </clipPath>
  </defs>
  <g id="discord" filter="url(#filter_1)">
    <path d="M0 0L20 0L20 20L0 20L0 0Z" id="Background" fill="none" fill-rule="evenodd" stroke="none" />
    <g clip-path="url(#mask_1)">
      <path d="M16.9308 3.6414C15.6342 3.04621 14.2658 2.62177 12.8599 2.37874C12.8337 2.37385 12.8074 2.38631 12.7945 2.40965C12.6187 2.7224 12.4239 3.13032 12.2876 3.4509C10.7503 3.22074 9.22092 3.22074 7.71525 3.4509C7.57892 3.12315 7.37709 2.7224 7.2005 2.40965C7.18712 2.3869 7.16116 2.37466 7.13509 2.37882C5.72907 2.62129 4.36058 3.04569 3.06409 3.64132C3.053 3.64606 3.04365 3.65412 3.03734 3.6644C0.444503 7.53807 -0.26583 11.3165 0.0826699 15.0481C0.0846605 15.0665 0.0940399 15.0834 0.10867 15.0948C1.81934 16.3512 3.47642 17.1138 5.10275 17.6193C5.12865 17.627 5.15662 17.6179 5.17292 17.5963C5.55759 17.071 5.9005 16.517 6.19459 15.9345C6.20276 15.9184 6.20365 15.8995 6.19703 15.8827C6.1904 15.8658 6.1769 15.8526 6.15992 15.8464C5.61592 15.6401 5.098 15.3885 4.59975 15.1028C4.5813 15.092 4.56947 15.0727 4.56819 15.0513C4.56692 15.0299 4.57638 15.0094 4.59342 14.9964C4.69825 14.9178 4.80317 14.8362 4.90325 14.7536C4.9214 14.7386 4.94645 14.7352 4.96792 14.7448C8.24109 16.2392 11.7846 16.2392 15.0191 14.7448C15.0406 14.7346 15.0661 14.7377 15.0845 14.7527C15.1847 14.8352 15.2895 14.9178 15.3952 14.9964C15.4123 15.0092 15.4218 15.0297 15.4207 15.051C15.4196 15.0724 15.408 15.0917 15.3897 15.1027C14.8912 15.3939 14.3691 15.6423 13.8289 15.8456C13.8119 15.852 13.7985 15.8655 13.792 15.8824C13.7855 15.8994 13.7866 15.9183 13.7949 15.9345C14.0953 16.5162 14.4382 17.0702 14.8158 17.5955C14.8316 17.6177 14.8598 17.6273 14.8859 17.6193C16.5201 17.1137 18.1772 16.3511 19.8878 15.0948C19.9027 15.084 19.9122 15.0672 19.9139 15.0488C20.3309 10.7347 19.2154 6.98724 16.9568 3.66515C16.9513 3.65436 16.9421 3.64591 16.9308 3.64132L16.9308 3.6414ZM6.68316 12.776C5.69774 12.776 4.88574 11.8712 4.88574 10.7601C4.88574 9.64914 5.68199 8.74438 6.68324 8.74438C7.69224 8.74438 8.49633 9.65705 8.48058 10.7602C8.48058 11.8712 7.68433 12.776 6.68316 12.776L6.68316 12.776ZM13.3292 12.776C12.3437 12.776 11.5317 11.8712 11.5317 10.7601C11.5317 9.64914 12.3279 8.74438 13.3292 8.74438C14.3382 8.74438 15.1422 9.65705 15.1265 10.7602C15.1265 11.8712 14.3382 12.776 13.3292 12.776L13.3292 12.776Z" id="Shape" fill="#000000" fill-rule="evenodd" stroke="none" />
    </g>
  </g>
</svg>