<?xml version="1.0" encoding="utf-8"?>
<svg width="28px" height="28px" viewBox="0 0 28 28" version="1.1" xmlns:xlink="http://www.w3.org/1999/xlink" xmlns="http://www.w3.org/2000/svg">
  <defs>
    <filter id="filter_1">
      <feColorMatrix in="SourceGraphic" type="matrix" values="0 0 0 0 0.52156866 0 0 0 0 0.52156866 0 0 0 0 0.52156866 0 0 0 1 0" />
    </filter>
    <path d="M0 0L28 0L28 28L0 28L0 0Z" id="path_1" />
    <clipPath id="mask_1">
      <use xlink:href="#path_1" />
    </clipPath>
  </defs>
  <g id="info-circle" filter="url(#filter_1)">
    <path d="M0 0L28 0L28 28L0 28L0 0Z" id="Background" fill="none" fill-rule="evenodd" stroke="none" />
    <g clip-path="url(#mask_1)">
      <path d="M14 26.25C9.6235 26.25 5.57944 23.9152 3.39119 20.125C1.20294 16.3348 1.20294 11.6652 3.39119 7.875C5.57944 4.08484 9.6235 1.75 14 1.75C18.3765 1.75 22.4206 4.08484 24.6088 7.875C26.7971 11.6652 26.7971 16.3348 24.6088 20.125C22.4206 23.9152 18.3765 26.25 14 26.25L14 26.25ZM14 28C21.7319 28 27.9999 21.732 28 14C28 6.26806 21.732 4.00544e-05 14 4.79923e-11C6.26806 -2.00271e-05 4.00545e-05 6.26795 1.90994e-10 13.9999C-4.00541e-05 21.7319 6.26792 27.9999 13.9999 28L14 28Z" id="Shape" fill="#000000" fill-rule="evenodd" stroke="none" />
      <path d="M15.6274 11.5288L11.6199 12.0311L11.4764 12.6961L12.2639 12.8413C12.7784 12.9638 12.8799 13.1493 12.7679 13.6621L11.4764 19.7311C11.1369 21.3008 11.6602 22.0393 12.8904 22.0393C13.8442 22.0393 14.9519 21.5983 15.4542 20.9928L15.6082 20.2648C15.2582 20.5728 14.7472 20.6953 14.4077 20.6953C13.9264 20.6953 13.7514 20.3576 13.8757 19.7626L15.6274 11.5288L15.6274 11.5288ZM15.75 7.875C15.75 8.50021 15.4165 9.07794 14.875 9.39054C14.3335 9.70315 13.6665 9.70315 13.125 9.39054C12.5835 9.07794 12.25 8.50021 12.25 7.875C12.25 7.24979 12.5835 6.67206 13.125 6.35946C13.6665 6.04685 14.3335 6.04685 14.875 6.35946C15.4165 6.67206 15.75 7.24978 15.75 7.875L15.75 7.875Z" id="Shape" fill="#000000" fill-rule="evenodd" stroke="none" />
    </g>
  </g>
</svg>