<?xml version="1.0" encoding="utf-8"?>
<svg width="28px" height="28px" viewBox="0 0 28 28" version="1.1" xmlns:xlink="http://www.w3.org/1999/xlink" xmlns="http://www.w3.org/2000/svg">
  <defs>
    <filter id="filter_1">
      <feColorMatrix in="SourceGraphic" type="matrix" values="0 0 0 0 0.52156866 0 0 0 0 0.52156866 0 0 0 0 0.52156866 0 0 0 1 0" />
    </filter>
    <path d="M0 0L28 0L28 28L0 28L0 0Z" id="path_1" />
    <clipPath id="mask_1">
      <use xlink:href="#path_1" />
    </clipPath>
  </defs>
  <g id="question-circle" filter="url(#filter_1)">
    <path d="M0 0L28 0L28 28L0 28L0 0Z" id="Background" fill="none" fill-rule="evenodd" stroke="none" />
    <g clip-path="url(#mask_1)">
      <path d="M14 26.25C9.6235 26.25 5.57944 23.9152 3.39119 20.125C1.20294 16.3348 1.20294 11.6652 3.39119 7.875C5.57944 4.08484 9.6235 1.75 14 1.75C18.3765 1.75 22.4206 4.08484 24.6088 7.875C26.7971 11.6652 26.7971 16.3348 24.6088 20.125C22.4206 23.9152 18.3765 26.25 14 26.25L14 26.25ZM14 28C21.7319 28 27.9999 21.732 28 14C28 6.26806 21.732 4.00544e-05 14 4.79923e-11C6.26806 -2.00271e-05 4.00545e-05 6.26795 1.90994e-10 13.9999C-4.00541e-05 21.7319 6.26792 27.9999 13.9999 28L14 28Z" id="Shape" fill="#000000" fill-rule="evenodd" stroke="none" />
      <path d="M9.19764 10.1255C9.1928 10.2397 9.23532 10.3509 9.31516 10.4327C9.395 10.5145 9.50508 10.5598 9.61939 10.5577L11.0631 10.5577C11.3046 10.5577 11.4971 10.36 11.5286 10.1202C11.6861 8.97225 12.4736 8.13575 13.8771 8.13575C15.0776 8.13575 16.1766 8.736 16.1766 10.1797C16.1766 11.291 15.5221 11.802 14.4879 12.579C13.3101 13.4347 12.3774 14.434 12.4439 16.0562L12.4491 16.436C12.453 16.6749 12.6477 16.8665 12.8866 16.8665L14.3059 16.8665C14.5475 16.8665 14.7434 16.6706 14.7434 16.429L14.7434 16.2452C14.7434 14.9887 15.2211 14.623 16.5109 13.6447C17.5766 12.8345 18.6879 11.935 18.6879 10.0467C18.6879 7.4025 16.4549 6.125 14.0101 6.125C11.7929 6.125 9.36389 7.1575 9.19764 10.1255L9.19764 10.1255ZM11.9229 20.2107C11.9229 21.1434 12.6666 21.8329 13.6904 21.8329C14.7561 21.8329 15.4893 21.1434 15.4893 20.2107C15.4893 19.2447 14.7543 18.5657 13.6886 18.5657C12.6666 18.5657 11.9229 19.2447 11.9229 20.2107L11.9229 20.2107Z" id="Shape" fill="#000000" fill-rule="evenodd" stroke="none" />
    </g>
  </g>
</svg>