<?xml version="1.0" encoding="utf-8"?>
<svg width="28px" height="28px" viewBox="0 0 28 28" version="1.1" xmlns:xlink="http://www.w3.org/1999/xlink" xmlns="http://www.w3.org/2000/svg">
  <defs>
    <filter id="filter_1">
      <feColorMatrix in="SourceGraphic" type="matrix" values="0 0 0 0 0.52156866 0 0 0 0 0.52156866 0 0 0 0 0.52156866 0 0 0 1 0" />
    </filter>
    <path d="M0 0L28 0L28 28L0 28L0 0Z" id="path_1" />
    <clipPath id="mask_1">
      <use xlink:href="#path_1" />
    </clipPath>
  </defs>
  <g id="x-lg" filter="url(#filter_1)">
    <path d="M0 0L28 0L28 28L0 28L0 0Z" id="Background" fill="none" fill-rule="evenodd" stroke="none" />
    <g clip-path="url(#mask_1)">
      <path d="M24.2437 3.75511C24.4082 3.91927 24.5007 4.14216 24.5007 4.37461C24.5007 4.60706 24.4082 4.82995 24.2437 4.99411L4.99367 24.2441C4.77235 24.4654 4.44976 24.5519 4.14742 24.4709C3.84508 24.3898 3.60893 24.1537 3.52792 23.8514C3.44691 23.549 3.53335 23.2264 3.75467 23.0051L23.0047 3.75511C23.1688 3.59054 23.3917 3.49805 23.6242 3.49805C23.8566 3.49805 24.0795 3.59054 24.2437 3.75511L24.2437 3.75511Z" id="Shape" fill="#000000" fill-rule="evenodd" stroke="none" />
      <path d="M3.75511 3.75511C3.59054 3.91927 3.49805 4.14216 3.49805 4.37461C3.49805 4.60706 3.59054 4.82995 3.75511 4.99411L23.0051 24.2441C23.2265 24.4655 23.5491 24.5519 23.8515 24.4708C24.1538 24.3898 24.39 24.1536 24.4709 23.8512C24.5519 23.5488 24.4653 23.2262 24.2439 23.0049L4.99411 3.75511C4.82995 3.59054 4.60706 3.49805 4.37461 3.49805C4.14216 3.49805 3.91927 3.59054 3.75511 3.75511L3.75511 3.75511Z" id="Shape" fill="#000000" fill-rule="evenodd" stroke="none" />
    </g>
  </g>
</svg>