<?xml version="1.0" encoding="utf-8"?>
<svg width="121px" height="121px" viewBox="0 0 121 121" version="1.1" xmlns:xlink="http://www.w3.org/1999/xlink" xmlns="http://www.w3.org/2000/svg">
  <defs>
    <filter filterUnits="userSpaceOnUse" color-interpolation-filters="sRGB" id="filter_1">
      <feFlood flood-opacity="0" result="BackgroundImageFix" />
      <feBlend mode="normal" in="SourceGraphic" in2="BackgroundImageFix" result="shape" />
      <feColorMatrix in="SourceAlpha" type="matrix" values="0 0 0 0 0 0 0 0 0 0 0 0 0 0 0 0 0 0 127 0" result="hardAlpha" />
      <feMorphology radius="-1" operator="erode" in="SourceAlpha" result="effect0_innerShadow" />
      <feOffset dx="-3" dy="0" />
      <feGaussianBlur stdDeviation="2" />
      <feComposite in2="hardAlpha" operator="arithmetic" k2="-1" k3="1" />
      <feColorMatrix type="matrix" values="0 0 0 0 0.39215687 0 0 0 0 0.39215687 0 0 0 0 0.39215687 0 0 0 0.4 0" />
      <feBlend mode="normal" in2="shape" result="effect0_innerShadow" />
    </filter>
    <filter filterUnits="userSpaceOnUse" color-interpolation-filters="sRGB" id="filter_2">
      <feFlood flood-opacity="0" result="BackgroundImageFix" />
      <feBlend mode="normal" in="SourceGraphic" in2="BackgroundImageFix" result="shape" />
      <feColorMatrix in="SourceAlpha" type="matrix" values="0 0 0 0 0 0 0 0 0 0 0 0 0 0 0 0 0 0 127 0" result="hardAlpha" />
      <feMorphology radius="-1" operator="erode" in="SourceAlpha" result="effect0_innerShadow" />
      <feOffset dx="3" dy="0" />
      <feGaussianBlur stdDeviation="2" />
      <feComposite in2="hardAlpha" operator="arithmetic" k2="-1" k3="1" />
      <feColorMatrix type="matrix" values="0 0 0 0 0.39215687 0 0 0 0 0.39215687 0 0 0 0 0.39215687 0 0 0 0.4 0" />
      <feBlend mode="normal" in2="shape" result="effect0_innerShadow" />
    </filter>
    <filter filterUnits="userSpaceOnUse" color-interpolation-filters="sRGB" id="filter_3">
      <feFlood flood-opacity="0" result="BackgroundImageFix" />
      <feColorMatrix in="SourceAlpha" type="matrix" values="0 0 0 0 0 0 0 0 0 0 0 0 0 0 0 0 0 0 127 0" />
      <feOffset dx="0" dy="2" />
      <feGaussianBlur stdDeviation="2.5" />
      <feColorMatrix type="matrix" values="0 0 0 0 0.39215687 0 0 0 0 0.39215687 0 0 0 0 0.39215687 0 0 0 0.49803922 0" />
      <feBlend mode="normal" in2="BackgroundImageFix" result="effect0_dropShadow" />
      <feBlend mode="normal" in="SourceGraphic" in2="effect0_dropShadow" result="shape" />
    </filter>
    <filter filterUnits="userSpaceOnUse" color-interpolation-filters="sRGB" id="filter_4">
      <feFlood flood-opacity="0" result="BackgroundImageFix" />
      <feColorMatrix in="SourceAlpha" type="matrix" values="0 0 0 0 0 0 0 0 0 0 0 0 0 0 0 0 0 0 127 0" />
      <feOffset dx="0" dy="2" />
      <feGaussianBlur stdDeviation="2.5" />
      <feColorMatrix type="matrix" values="0 0 0 0 0.39215687 0 0 0 0 0.39215687 0 0 0 0 0.39215687 0 0 0 0.29803923 0" />
      <feBlend mode="normal" in2="BackgroundImageFix" result="effect0_dropShadow" />
      <feBlend mode="normal" in="SourceGraphic" in2="effect0_dropShadow" result="shape" />
    </filter>
    <path d="M4.28679 1.43954C4.28679 1.43954 7.96871 -0.299855 16.6925 0.0453339C25.4166 0.390523 39.1834 2.8203 39.1834 2.8203L38.255 32.9449C38.255 32.9449 24.6181 30.049 15.894 29.7038C7.16981 29.3587 3.3584 31.5642 3.3584 31.5642L4.28679 1.43954Z" id="path_1" />
    <path d="M38.249 2.82037C38.249 2.82037 41.8148 0.79419 50.5386 0.449001C59.2628 0.103812 73.1457 1.43961 73.1457 1.43961L74.0741 31.5642C74.0741 31.5642 60.2918 29.7533 51.5677 30.0985C42.8435 30.4436 39.1774 32.945 39.1774 32.945L38.249 2.82037Z" id="path_2" />
  </defs>
  <g id="Group-8" transform="translate(1 1)">
    <path d="M13.999 0L105.001 0Q105.345 0 105.688 0.0168624Q106.031 0.0337248 106.373 0.067409Q106.715 0.101093 107.055 0.151518Q107.395 0.201943 107.732 0.268987Q108.069 0.336031 108.402 0.419532Q108.736 0.503034 109.065 0.602792Q109.394 0.70255 109.717 0.818324Q110.041 0.934099 110.358 1.06561Q110.676 1.19712 110.986 1.34405Q111.297 1.49099 111.6 1.65298Q111.903 1.81498 112.198 1.99166Q112.493 2.16833 112.778 2.35926Q113.064 2.55018 113.34 2.7549Q113.616 2.95961 113.882 3.17763Q114.148 3.39564 114.402 3.62642Q114.657 3.85721 114.9 4.10021Q115.143 4.34321 115.374 4.59785Q115.604 4.85248 115.822 5.11813Q116.04 5.38378 116.245 5.6598Q116.45 5.93583 116.641 6.22157Q116.832 6.50731 117.008 6.80207Q117.185 7.09684 117.347 7.39992Q117.509 7.70299 117.656 8.01366Q117.803 8.32432 117.934 8.64181Q118.066 8.95931 118.182 9.28288Q118.297 9.60644 118.397 9.9353Q118.497 10.2642 118.58 10.5975Q118.664 10.9309 118.731 11.2679Q118.798 11.605 118.848 11.9449Q118.899 12.2849 118.933 12.6269Q118.966 12.9689 118.983 13.3121Q119 13.6553 119 13.999L119 105.001Q119 105.345 118.983 105.688Q118.966 106.031 118.933 106.373Q118.899 106.715 118.848 107.055Q118.798 107.395 118.731 107.732Q118.664 108.069 118.58 108.402Q118.497 108.736 118.397 109.065Q118.297 109.394 118.182 109.717Q118.066 110.041 117.934 110.358Q117.803 110.676 117.656 110.986Q117.509 111.297 117.347 111.6Q117.185 111.903 117.008 112.198Q116.832 112.493 116.641 112.778Q116.45 113.064 116.245 113.34Q116.04 113.616 115.822 113.882Q115.604 114.148 115.374 114.402Q115.143 114.657 114.9 114.9Q114.657 115.143 114.402 115.374Q114.148 115.604 113.882 115.822Q113.616 116.04 113.34 116.245Q113.064 116.45 112.778 116.641Q112.493 116.832 112.198 117.008Q111.903 117.185 111.6 117.347Q111.297 117.509 110.986 117.656Q110.676 117.803 110.358 117.934Q110.041 118.066 109.717 118.182Q109.394 118.297 109.065 118.397Q108.736 118.497 108.402 118.58Q108.069 118.664 107.732 118.731Q107.395 118.798 107.055 118.848Q106.715 118.899 106.373 118.933Q106.031 118.966 105.688 118.983Q105.345 119 105.001 119L13.999 119Q13.6553 119 13.3121 118.983Q12.9689 118.966 12.6269 118.933Q12.2849 118.899 11.9449 118.848Q11.605 118.798 11.2679 118.731Q10.9309 118.664 10.5975 118.58Q10.2642 118.497 9.9353 118.397Q9.60644 118.297 9.28288 118.182Q8.95931 118.066 8.64181 117.934Q8.32432 117.803 8.01366 117.656Q7.70299 117.509 7.39992 117.347Q7.09684 117.185 6.80207 117.008Q6.50731 116.832 6.22157 116.641Q5.93583 116.45 5.6598 116.245Q5.38378 116.04 5.11813 115.822Q4.85248 115.604 4.59785 115.374Q4.34321 115.143 4.10021 114.9Q3.85721 114.657 3.62642 114.402Q3.39564 114.148 3.17763 113.882Q2.95961 113.616 2.7549 113.34Q2.55018 113.064 2.35926 112.778Q2.16833 112.493 1.99166 112.198Q1.81498 111.903 1.65298 111.6Q1.49099 111.297 1.34405 110.986Q1.19712 110.676 1.06561 110.358Q0.934099 110.041 0.818324 109.717Q0.70255 109.394 0.602792 109.065Q0.503034 108.736 0.419532 108.402Q0.336031 108.069 0.268987 107.732Q0.201943 107.395 0.151518 107.055Q0.101093 106.715 0.067409 106.373Q0.0337248 106.031 0.0168624 105.688Q0 105.345 0 105.001L0 13.999Q0 13.6553 0.0168624 13.3121Q0.0337248 12.9689 0.067409 12.6269Q0.101093 12.2849 0.151518 11.9449Q0.201943 11.605 0.268987 11.2679Q0.336031 10.9309 0.419532 10.5975Q0.503034 10.2642 0.602792 9.9353Q0.70255 9.60644 0.818324 9.28288Q0.934099 8.95931 1.06561 8.64181Q1.19712 8.32432 1.34405 8.01366Q1.49099 7.70299 1.65298 7.39992Q1.81498 7.09684 1.99166 6.80207Q2.16833 6.50731 2.35926 6.22157Q2.55018 5.93583 2.7549 5.6598Q2.95961 5.38378 3.17763 5.11813Q3.39564 4.85248 3.62642 4.59785Q3.85721 4.34321 4.10021 4.10021Q4.34321 3.85721 4.59785 3.62642Q4.85248 3.39564 5.11813 3.17763Q5.38378 2.95961 5.6598 2.7549Q5.93583 2.55018 6.22157 2.35926Q6.50731 2.16833 6.80207 1.99166Q7.09684 1.81498 7.39992 1.65298Q7.70299 1.49099 8.01366 1.34405Q8.32432 1.19712 8.64181 1.06561Q8.95931 0.934099 9.28288 0.818324Q9.60644 0.70255 9.9353 0.602792Q10.2642 0.503034 10.5975 0.419532Q10.9309 0.336031 11.2679 0.268987Q11.605 0.201943 11.9449 0.151518Q12.2849 0.101093 12.6269 0.067409Q12.9689 0.0337248 13.3121 0.0168624Q13.6553 0 13.999 0Z" id="Rectangle-11" fill="#82DB78" fill-rule="evenodd" stroke="#242424" stroke-width="2" />
    <g id="Group-7" transform="translate(20.277344 13.883179)">
      <g filter="url(#filter_3)">
        <g id="Group" transform="translate(0 49.935913)">
          <path d="M1.17271 2.61157L37.6596 4.09087L36.7536 34.2155C36.7536 34.2155 22.1832 33.0819 12.9692 33.0819C3.75534 33.0819 9.67127e-07 34.2155 9.67127e-07 34.2155L1.17271 2.61157Z" id="Rectangle-15" fill="#242424" fill-rule="evenodd" stroke="#242424" stroke-width="0.5" stroke-linecap="round" stroke-linejoin="round" />
          <path d="M39.7632 4.11236L55.727 3.46513L76.25 2.63306L77.3498 35.4664C77.3498 35.4664 66.8556 33.0029 57.7339 33.3727C48.6121 33.7425 40.6692 34.237 40.6692 34.237L39.7632 4.11236Z" id="Rectangle-15-Copy" fill="#242424" fill-rule="evenodd" stroke="#242424" stroke-width="0.5" stroke-linejoin="round" />
          <g id="Rectangle-12">
            <use stroke="none" fill="#FFFFFF" xlink:href="#path_1" fill-rule="evenodd" filter="url(#filter_1)" />
            <use xlink:href="#path_1" fill="none" stroke="#242424" stroke-width="1" />
          </g>
          <g id="Rectangle-12-Copy">
            <use stroke="none" fill="#FFFFFF" xlink:href="#path_2" fill-rule="evenodd" filter="url(#filter_2)" />
            <use xlink:href="#path_2" fill="none" stroke="#242424" stroke-width="1" />
          </g>
          <path d="M36.872 33.1525C36.872 33.1525 37.6822 33.3993 38.5447 33.3462C39.4071 33.293 40.3218 32.9398 40.3218 32.9398L41.2316 41L38.7165 39.1852L36.3638 41L36.872 33.1525Z" id="Rectangle-13" fill="#A34444" fill-rule="evenodd" stroke="#242424" stroke-width="0.75" stroke-linejoin="round" />
        </g>
      </g>
      <g id="Group-5" transform="translate(6.8950195 13.1501465)">
        <path d="M1.999 0L51.5922 0Q51.6904 0 51.7881 0.00962573Q51.8859 0.0192515 51.9822 0.0384102Q52.0785 0.057569 52.1725 0.0860763Q52.2664 0.114584 52.3572 0.152165Q52.4479 0.189746 52.5345 0.236039Q52.6211 0.282333 52.7028 0.336892Q52.7844 0.391452 52.8603 0.453752Q52.9363 0.516052 53.0057 0.585494Q53.0751 0.654935 53.1374 0.730848Q53.1997 0.806761 53.2543 0.888415Q53.3089 0.970069 53.3551 1.05668Q53.4014 1.14329 53.439 1.23402Q53.4766 1.32474 53.5051 1.41872Q53.5336 1.5127 53.5528 1.60901Q53.5719 1.70533 53.5816 1.80306Q53.5912 1.9008 53.5912 1.999L53.5912 13.9192Q53.5912 14.0174 53.5816 14.1151Q53.5719 14.2129 53.5528 14.3092Q53.5336 14.4055 53.5051 14.4995Q53.4766 14.5935 53.439 14.6842Q53.4014 14.7749 53.3551 14.8615Q53.3089 14.9481 53.2543 15.0298Q53.1997 15.1115 53.1374 15.1874Q53.0751 15.2633 53.0057 15.3327Q52.9363 15.4022 52.8603 15.4645Q52.7844 15.5268 52.7028 15.5813Q52.6211 15.6359 52.5345 15.6822Q52.4479 15.7285 52.3572 15.766Q52.2664 15.8036 52.1725 15.8321Q52.0785 15.8606 51.9822 15.8798Q51.8859 15.899 51.7881 15.9086Q51.6904 15.9182 51.5922 15.9182L1.999 15.9182Q1.9008 15.9182 1.80306 15.9086Q1.70533 15.899 1.60901 15.8798Q1.5127 15.8606 1.41872 15.8321Q1.32474 15.8036 1.23402 15.766Q1.14329 15.7285 1.05668 15.6822Q0.970069 15.6359 0.888415 15.5813Q0.806761 15.5268 0.730848 15.4645Q0.654935 15.4022 0.585494 15.3327Q0.516052 15.2633 0.453752 15.1874Q0.391452 15.1115 0.336892 15.0298Q0.282333 14.9481 0.236039 14.8615Q0.189746 14.7749 0.152165 14.6842Q0.114584 14.5935 0.0860763 14.4995Q0.057569 14.4055 0.0384102 14.3092Q0.0192515 14.2129 0.00962573 14.1151Q0 14.0174 0 13.9192L0 1.999Q0 1.9008 0.00962573 1.80306Q0.0192515 1.70533 0.0384102 1.60901Q0.057569 1.5127 0.0860763 1.41872Q0.114584 1.32474 0.152165 1.23402Q0.189746 1.14329 0.236039 1.05668Q0.282333 0.970069 0.336892 0.888415Q0.391452 0.806761 0.453752 0.730848Q0.516052 0.654935 0.585494 0.585494Q0.654935 0.516052 0.730848 0.453752Q0.806761 0.391452 0.888415 0.336892Q0.970069 0.282333 1.05668 0.236039Q1.14329 0.189746 1.23402 0.152165Q1.32474 0.114584 1.41872 0.0860763Q1.5127 0.057569 1.60901 0.0384102Q1.70533 0.0192515 1.80306 0.00962573Q1.9008 0 1.999 0Z" id="Rectangle-16" fill="#FFFFFF" fill-rule="evenodd" stroke="#242424" stroke-width="1" filter="url(#filter_4)" />
        <path d="M4.5083 6.89808C4.5083 5.06654 5.99306 3.58179 7.82459 3.58179C9.65613 3.58179 11.1409 5.06654 11.1409 6.89808C11.1409 8.72962 9.65613 10.2144 7.82459 10.2144C5.99306 10.2144 4.5083 8.72962 4.5083 6.89808Z" id="Ellipse" fill="#82DB78" fill-rule="evenodd" stroke="#000000" stroke-width="1" />
        <path d="M14.458 6.23448L46.2944 6.23448" id="Line-2" fill="#5ED885" fill-rule="evenodd" stroke="#242424" stroke-width="1" stroke-linecap="round" />
        <path d="M14.0601 10.2142L43.2434 10.2142" id="Line-2-Copy" fill="#5ED885" fill-rule="evenodd" stroke="#242424" stroke-width="1" stroke-linecap="round" />
      </g>
      <g id="Group-6" transform="translate(33.855957 0)">
        <path d="M0.999 0L31.349 0Q31.4474 0 31.5439 0.0191955Q31.6404 0.038391 31.7313 0.0760443Q31.8222 0.113698 31.904 0.168362Q31.9858 0.223026 32.0554 0.2926Q32.125 0.362175 32.1796 0.443985Q32.2343 0.525796 32.2719 0.616699Q32.3096 0.707602 32.3288 0.804105Q32.348 0.900607 32.348 0.999L32.348 8.60933Q32.348 8.70773 32.3288 8.80423Q32.3096 8.90073 32.2719 8.99163Q32.2343 9.08254 32.1796 9.16435Q32.125 9.24616 32.0554 9.31573Q31.9858 9.38531 31.904 9.43997Q31.8222 9.49464 31.7313 9.53229Q31.6404 9.56994 31.5439 9.58914Q31.4474 9.60833 31.349 9.60833L0.999 9.60833Q0.900607 9.60833 0.804105 9.58914Q0.707602 9.56994 0.616699 9.53229Q0.525796 9.49464 0.443985 9.43997Q0.362175 9.38531 0.2926 9.31573Q0.223026 9.24616 0.168362 9.16435Q0.113698 9.08254 0.0760443 8.99163Q0.038391 8.90073 0.0191955 8.80423Q0 8.70773 0 8.60933L0 0.999Q0 0.900607 0.0191955 0.804105Q0.038391 0.707602 0.0760443 0.616699Q0.113698 0.525796 0.168362 0.443985Q0.223026 0.362175 0.2926 0.2926Q0.362175 0.223026 0.443985 0.168362Q0.525796 0.113698 0.616699 0.0760443Q0.707602 0.038391 0.804105 0.0191955Q0.900607 0 0.999 0L0.999 0Z" id="Rectangle-16-Copy-2" fill="#FFFFFF" fill-rule="evenodd" stroke="#242424" stroke-width="0.75" filter="url(#filter_4)" />
        <path d="M2.72266 4.16372C2.72266 3.0582 3.61886 2.16199 4.72439 2.16199C5.82992 2.16199 6.72613 3.0582 6.72613 4.16372C6.72613 5.26925 5.82992 6.16546 4.72439 6.16546C3.61886 6.16546 2.72266 5.26925 2.72266 4.16372Z" id="Ellipse-Copy-2" fill="#82DB78" fill-rule="evenodd" stroke="#242424" stroke-width="0.75" />
        <path d="M8.72754 3.76346L27.9442 3.76346" id="Line-2-Copy-4" fill="#5ED885" fill-rule="evenodd" stroke="#242424" stroke-width="0.5" stroke-linecap="round" />
        <path d="M8.4873 6.16532L26.1026 6.16532" id="Line-2-Copy-5" fill="#5ED885" fill-rule="evenodd" stroke="#242424" stroke-width="0.5" stroke-linecap="round" />
      </g>
      <g id="Group-4" transform="translate(31.726074 32.6167)">
        <path d="M1.999 0L41.6555 0Q41.7537 0 41.8514 0.00962573Q41.9492 0.0192515 42.0455 0.0384102Q42.1418 0.057569 42.2358 0.0860763Q42.3298 0.114584 42.4205 0.152165Q42.5112 0.189746 42.5978 0.236039Q42.6844 0.282333 42.7661 0.336892Q42.8477 0.391452 42.9237 0.453752Q42.9996 0.516052 43.069 0.585494Q43.1384 0.654935 43.2007 0.730848Q43.263 0.806761 43.3176 0.888415Q43.3722 0.970069 43.4185 1.05668Q43.4647 1.14329 43.5023 1.23402Q43.5399 1.32474 43.5684 1.41872Q43.5969 1.5127 43.6161 1.60901Q43.6353 1.70533 43.6449 1.80306Q43.6545 1.9008 43.6545 1.999L43.6545 10.9677Q43.6545 11.0659 43.6449 11.1637Q43.6353 11.2614 43.6161 11.3577Q43.5969 11.454 43.5684 11.548Q43.5399 11.642 43.5023 11.7327Q43.4648 11.8234 43.4185 11.91Q43.3722 11.9966 43.3176 12.0783Q43.2631 12.16 43.2007 12.2359Q43.1384 12.3118 43.069 12.3812Q42.9996 12.4507 42.9237 12.513Q42.8477 12.5753 42.7661 12.6298Q42.6844 12.6844 42.5978 12.7307Q42.5112 12.777 42.4205 12.8146Q42.3298 12.8521 42.2358 12.8806Q42.1418 12.9091 42.0455 12.9283Q41.9492 12.9475 41.8514 12.9571Q41.7537 12.9667 41.6555 12.9667L1.999 12.9667Q1.9008 12.9667 1.80306 12.9571Q1.70533 12.9475 1.60901 12.9283Q1.5127 12.9091 1.41872 12.8806Q1.32474 12.8521 1.23402 12.8146Q1.14329 12.777 1.05668 12.7307Q0.970069 12.6844 0.888415 12.6298Q0.806761 12.5753 0.730848 12.513Q0.654935 12.4507 0.585494 12.3812Q0.516052 12.3118 0.453752 12.2359Q0.391452 12.16 0.336892 12.0783Q0.282333 11.9966 0.236039 11.91Q0.189746 11.8234 0.152165 11.7327Q0.114584 11.642 0.0860763 11.548Q0.057569 11.454 0.0384102 11.3577Q0.0192515 11.2614 0.00962573 11.1637Q0 11.0659 0 10.9677L0 1.999Q0 1.9008 0.00962573 1.80306Q0.0192515 1.70533 0.0384102 1.60901Q0.057569 1.5127 0.0860763 1.41872Q0.114584 1.32474 0.152165 1.23402Q0.189746 1.14329 0.236039 1.05668Q0.282333 0.970069 0.336892 0.888415Q0.391452 0.806761 0.453752 0.730848Q0.516052 0.654935 0.585494 0.585494Q0.654935 0.516052 0.730848 0.453752Q0.806761 0.391452 0.888415 0.336892Q0.970069 0.282333 1.05668 0.236039Q1.14329 0.189746 1.23402 0.152165Q1.32474 0.114584 1.41872 0.0860763Q1.5127 0.057569 1.60901 0.0384102Q1.70533 0.0192515 1.80306 0.00962573Q1.9008 0 1.999 0L1.999 0Z" id="Rectangle-16-Copy" fill="#FFFFFF" fill-rule="evenodd" stroke="#242424" stroke-width="1" filter="url(#filter_4)" />
        <path d="M3.97363 5.65245C3.97363 4.16051 5.18309 2.95105 6.67503 2.95105C8.16697 2.95105 9.37643 4.16051 9.37643 5.65245C9.37643 7.14439 8.16697 8.35385 6.67503 8.35385C5.18309 8.35385 3.97363 7.14439 3.97363 5.65245Z" id="Ellipse-Copy" fill="#82DB78" fill-rule="evenodd" stroke="#242424" stroke-width="1" />
        <path d="M12.0776 5.11181L38.0111 5.11181" id="Line-2-Copy-2" fill="#82DB78" fill-rule="evenodd" stroke="#242424" stroke-width="1" stroke-linecap="round" />
        <path d="M11.7544 8.35351L35.5267 8.35351" id="Line-2-Copy-3" fill="#82DB78" fill-rule="evenodd" stroke="#242424" stroke-width="1" stroke-linecap="round" />
      </g>
    </g>
  </g>
</svg>