<?xml version="1.0" encoding="utf-8"?>
<svg width="372px" height="256px" viewBox="0 0 372 256" version="1.1" xmlns:xlink="http://www.w3.org/1999/xlink" xmlns="http://www.w3.org/2000/svg">
  <g id="Group-8" transform="translate(1 1)">
    <path d="M21.4718 122.556C45.6505 69.2354 19.5199 2.68538 119.921 2.68538C220.323 2.68538 254.909 -15.1042 327.663 40.8912C400.415 96.8865 361.664 212.244 338.07 236.696C319.875 255.552 147.591 258.307 75.6836 246.247C-27.9702 228.864 -2.70693 175.877 21.4718 122.556Z" id="Rectangle-10" fill="#EBF0F0" fill-rule="evenodd" stroke="none" />
    <g id="Group-7" transform="translate(102.2666 144.74658)">
      <path d="M2.42376 5.39746L77.835 8.45489L75.9625 70.7166C75.9625 70.7166 45.8483 68.3737 26.8049 68.3737C7.76156 68.3737 1.99886e-06 70.7166 1.99886e-06 70.7166L2.42376 5.39746Z" id="Rectangle-15" fill="#242424" fill-rule="evenodd" stroke="#242424" stroke-width="0.5" stroke-linecap="round" stroke-linejoin="round" />
      <path d="M82.1836 8.49957L115.178 7.16187L157.595 5.44214L159.868 73.3022C159.868 73.3022 138.178 68.2106 119.325 68.975C100.473 69.7393 84.0561 70.7613 84.0561 70.7613L82.1836 8.49957Z" id="Rectangle-15-Copy" fill="#242424" fill-rule="evenodd" stroke="#242424" stroke-width="0.5" stroke-linejoin="round" />
      <path d="M8.86022 2.97526C8.86022 2.97526 16.47 -0.619743 34.5003 0.0936963C52.5315 0.807136 80.9848 5.82902 80.9848 5.82902L79.066 68.0907C79.066 68.0907 50.8812 62.1054 32.85 61.392C14.8189 60.6788 6.94141 65.237 6.94141 65.237L8.86022 2.97526Z" id="Rectangle-12" fill="#FFFFFF" fill-rule="evenodd" stroke="#242424" stroke-width="2" />
      <path d="M79.0547 5.82909C79.0547 5.82909 86.4245 1.64137 104.455 0.927935C122.486 0.214496 151.179 2.97533 151.179 2.97533L153.098 65.2371C153.098 65.2371 124.613 61.4942 106.582 62.2077C88.5506 62.9209 80.9735 68.0908 80.9735 68.0908L79.0547 5.82909Z" id="Rectangle-12-Copy" fill="#FFFFFF" fill-rule="evenodd" stroke="#242424" stroke-width="2" />
      <path d="M76.2086 68.5196C76.2086 68.5196 77.8832 69.0298 79.6657 68.92C81.4483 68.8101 83.3388 68.0801 83.3388 68.0801L85.2192 84.7389L80.0208 80.9881L75.1582 84.7389L76.2086 68.5196Z" id="Rectangle-13" fill="#A34444" fill-rule="evenodd" stroke="#242424" stroke-width="2" stroke-linejoin="round" />
    </g>
    <path d="M119.426 69.2268L224.19 69.2268Q224.338 69.2268 224.484 69.2412Q224.631 69.2557 224.775 69.2844Q224.92 69.3132 225.061 69.3559Q225.202 69.3987 225.338 69.4551Q225.474 69.5115 225.604 69.5809Q225.734 69.6504 225.856 69.7322Q225.979 69.8141 226.093 69.9076Q226.207 70.001 226.311 70.1052Q226.415 70.2094 226.509 70.3232Q226.602 70.4371 226.684 70.5596Q226.766 70.6821 226.835 70.8121Q226.905 70.942 226.961 71.0781Q227.017 71.2142 227.06 71.3552Q227.103 71.4962 227.132 71.6407Q227.16 71.7852 227.175 71.9318Q227.189 72.0785 227.189 72.2258L227.189 99.1277Q227.189 99.275 227.175 99.4216Q227.16 99.5682 227.132 99.7127Q227.103 99.8572 227.06 99.9982Q227.017 100.139 226.961 100.275Q226.905 100.411 226.835 100.541Q226.766 100.671 226.684 100.794Q226.602 100.916 226.509 101.03Q226.415 101.144 226.311 101.248Q226.207 101.352 226.093 101.446Q225.979 101.539 225.856 101.621Q225.734 101.703 225.604 101.773Q225.474 101.842 225.338 101.898Q225.202 101.955 225.061 101.998Q224.92 102.04 224.775 102.069Q224.631 102.098 224.484 102.112Q224.338 102.127 224.19 102.127L119.426 102.127Q119.278 102.127 119.132 102.112Q118.985 102.098 118.841 102.069Q118.696 102.04 118.555 101.998Q118.414 101.955 118.278 101.898Q118.142 101.842 118.012 101.773Q117.882 101.703 117.76 101.621Q117.637 101.539 117.523 101.446Q117.409 101.352 117.305 101.248Q117.201 101.144 117.107 101.03Q117.014 100.916 116.932 100.794Q116.85 100.671 116.781 100.541Q116.711 100.411 116.655 100.275Q116.599 100.139 116.556 99.9982Q116.513 99.8572 116.484 99.7127Q116.456 99.5682 116.441 99.4216Q116.427 99.275 116.427 99.1277L116.427 72.2258Q116.427 72.0785 116.441 71.9318Q116.456 71.7852 116.484 71.6407Q116.513 71.4962 116.556 71.3552Q116.599 71.2142 116.655 71.0781Q116.711 70.942 116.781 70.8121Q116.85 70.6821 116.932 70.5596Q117.014 70.4371 117.107 70.3233Q117.201 70.2094 117.305 70.1052Q117.409 70.001 117.523 69.9075Q117.637 69.8141 117.76 69.7322Q117.882 69.6504 118.012 69.5809Q118.142 69.5115 118.278 69.4551Q118.414 69.3987 118.555 69.3559Q118.696 69.3132 118.841 69.2844Q118.985 69.2557 119.132 69.2412Q119.278 69.2268 119.426 69.2268Z" id="Rectangle-11" fill="#FFFFFF" fill-rule="evenodd" stroke="#242424" stroke-width="2" />
    <path d="M127.439 83.9476C127.439 80.1622 130.508 77.0935 134.294 77.0935C138.079 77.0935 141.148 80.1622 141.148 83.9476C141.148 87.7331 138.079 90.8018 134.294 90.8018C130.508 90.8018 127.439 87.7331 127.439 83.9476Z" id="Ellipse" fill="#82DB78" fill-rule="evenodd" stroke="#000000" stroke-width="2" />
    <path d="M147.893 81.4082L213.692 81.4082" id="Line-2" fill="#5ED885" fill-rule="evenodd" stroke="#242424" stroke-width="2" stroke-linecap="round" />
    <path d="M144.747 89.2749L205.063 89.2749" id="Line-2-Copy" fill="#5ED885" fill-rule="evenodd" stroke="#242424" stroke-width="2" stroke-linecap="round" />
    <path d="M175.065 42.48L237.924 42.48Q238.023 42.48 238.12 42.4896Q238.218 42.4992 238.314 42.5184Q238.411 42.5376 238.505 42.5661Q238.599 42.5946 238.689 42.6321Q238.78 42.6697 238.867 42.716Q238.953 42.7623 239.035 42.8169Q239.117 42.8714 239.193 42.9337Q239.268 42.996 239.338 43.0655Q239.407 43.1349 239.47 43.2108Q239.532 43.2867 239.587 43.3684Q239.641 43.4501 239.687 43.5367Q239.734 43.6233 239.771 43.714Q239.809 43.8047 239.837 43.8987Q239.866 43.9927 239.885 44.089Q239.904 44.1853 239.914 44.283Q239.923 44.3808 239.923 44.479L239.923 60.3395Q239.923 60.4377 239.914 60.5355Q239.904 60.6332 239.885 60.7295Q239.866 60.8258 239.837 60.9198Q239.809 61.0138 239.771 61.1045Q239.734 61.1952 239.687 61.2819Q239.641 61.3685 239.586 61.4501Q239.532 61.5318 239.47 61.6077Q239.407 61.6836 239.338 61.753Q239.268 61.8225 239.193 61.8848Q239.117 61.9471 239.035 62.0016Q238.953 62.0562 238.867 62.1025Q238.78 62.1488 238.689 62.1864Q238.599 62.224 238.505 62.2525Q238.411 62.281 238.314 62.3001Q238.218 62.3193 238.12 62.3289Q238.023 62.3385 237.924 62.3385L175.065 62.3385Q174.967 62.3385 174.869 62.3289Q174.772 62.3193 174.675 62.3001Q174.579 62.281 174.485 62.2525Q174.391 62.224 174.3 62.1864Q174.21 62.1488 174.123 62.1025Q174.036 62.0562 173.955 62.0016Q173.873 61.9471 173.797 61.8848Q173.721 61.8225 173.652 61.753Q173.582 61.6836 173.52 61.6077Q173.458 61.5318 173.403 61.4501Q173.349 61.3685 173.302 61.2819Q173.256 61.1952 173.219 61.1045Q173.181 61.0138 173.152 60.9198Q173.124 60.8258 173.105 60.7295Q173.086 60.6332 173.076 60.5355Q173.066 60.4377 173.066 60.3395L173.066 44.479Q173.066 44.3808 173.076 44.283Q173.086 44.1853 173.105 44.089Q173.124 43.9927 173.152 43.8987Q173.181 43.8047 173.219 43.714Q173.256 43.6233 173.302 43.5367Q173.349 43.4501 173.403 43.3684Q173.458 43.2867 173.52 43.2108Q173.582 43.1349 173.652 43.0655Q173.721 42.996 173.797 42.9337Q173.873 42.8714 173.955 42.8169Q174.036 42.7623 174.123 42.716Q174.21 42.6697 174.3 42.6321Q174.391 42.5946 174.485 42.5661Q174.579 42.5376 174.675 42.5184Q174.772 42.4992 174.869 42.4896Q174.967 42.48 175.065 42.48Z" id="Rectangle-16-Copy-2" fill="#FFFFFF" fill-rule="evenodd" stroke="#242424" stroke-width="2" />
    <path d="M179.36 49.7634C179.36 47.4785 181.213 45.6262 183.498 45.6262C185.782 45.6262 187.635 47.4785 187.635 49.7634C187.635 52.0483 185.782 53.9006 183.498 53.9006C181.213 53.9006 179.36 52.0483 179.36 49.7634Z" id="Ellipse-Copy-2" fill="#82DB78" fill-rule="evenodd" stroke="#242424" stroke-width="2" />
    <path d="M191.947 48.8546L231.664 48.8546" id="Line-2-Copy-4" fill="#5ED885" fill-rule="evenodd" stroke="#242424" stroke-width="0.5" stroke-linecap="round" />
    <path d="M191.947 53.5746L228.355 53.5746" id="Line-2-Copy-5" fill="#5ED885" fill-rule="evenodd" stroke="#242424" stroke-width="0.5" stroke-linecap="round" />
    <path d="M171.346 108.56L255.573 108.56Q255.72 108.56 255.867 108.575Q256.014 108.589 256.158 108.618Q256.303 108.646 256.444 108.689Q256.585 108.732 256.721 108.788Q256.857 108.845 256.987 108.914Q257.117 108.984 257.239 109.065Q257.362 109.147 257.476 109.241Q257.59 109.334 257.694 109.438Q257.798 109.543 257.891 109.657Q257.985 109.77 258.067 109.893Q258.148 110.015 258.218 110.145Q258.287 110.275 258.344 110.411Q258.4 110.547 258.443 110.688Q258.486 110.829 258.514 110.974Q258.543 111.118 258.558 111.265Q258.572 111.412 258.572 111.559L258.572 132.361Q258.572 132.508 258.558 132.655Q258.543 132.801 258.514 132.946Q258.486 133.09 258.443 133.231Q258.4 133.372 258.344 133.508Q258.287 133.645 258.218 133.774Q258.148 133.904 258.067 134.027Q257.985 134.149 257.891 134.263Q257.798 134.377 257.694 134.481Q257.59 134.586 257.476 134.679Q257.362 134.772 257.239 134.854Q257.117 134.936 256.987 135.006Q256.857 135.075 256.721 135.131Q256.585 135.188 256.444 135.231Q256.303 135.273 256.158 135.302Q256.014 135.331 255.867 135.345Q255.72 135.36 255.573 135.36L171.346 135.36Q171.198 135.36 171.052 135.345Q170.905 135.331 170.761 135.302Q170.616 135.273 170.475 135.231Q170.334 135.188 170.198 135.131Q170.062 135.075 169.932 135.006Q169.802 134.936 169.68 134.854Q169.557 134.772 169.443 134.679Q169.329 134.586 169.225 134.481Q169.121 134.377 169.027 134.263Q168.934 134.149 168.852 134.027Q168.77 133.904 168.701 133.774Q168.631 133.645 168.575 133.508Q168.519 133.372 168.476 133.231Q168.433 133.09 168.404 132.946Q168.376 132.801 168.361 132.655Q168.347 132.508 168.347 132.361L168.347 111.559Q168.347 111.412 168.361 111.265Q168.376 111.118 168.404 110.974Q168.433 110.829 168.476 110.688Q168.519 110.548 168.575 110.411Q168.631 110.275 168.701 110.145Q168.77 110.015 168.852 109.893Q168.934 109.77 169.027 109.657Q169.121 109.543 169.225 109.438Q169.329 109.334 169.443 109.241Q169.557 109.147 169.68 109.065Q169.802 108.984 169.932 108.914Q170.062 108.845 170.198 108.788Q170.334 108.732 170.475 108.689Q170.616 108.646 170.761 108.618Q170.905 108.589 171.052 108.575Q171.198 108.56 171.346 108.56Z" id="Rectangle-16-Copy-3" fill="#FFFFFF" fill-rule="evenodd" stroke="#242424" stroke-width="2" />
    <path d="M176.213 118.863C176.213 115.78 178.713 113.28 181.796 113.28C184.88 113.28 187.379 115.78 187.379 118.863C187.379 121.947 184.88 124.447 181.796 124.447C178.713 124.447 176.213 121.947 176.213 118.863Z" id="Ellipse-Copy-3" fill="#82DB78" fill-rule="evenodd" stroke="#242424" stroke-width="2" />
    <path d="M193.52 120.233L247.119 120.233" id="Line-2-Copy-6" fill="#82DB78" fill-rule="evenodd" stroke="#242424" stroke-width="2" stroke-linecap="round" />
    <path d="M193.52 126.527L242.652 126.527" id="Line-2-Copy-7" fill="#82DB78" fill-rule="evenodd" stroke="#242424" stroke-width="2" stroke-linecap="round" />
  </g>
</svg>