<?xml version="1.0" encoding="utf-8"?>
<svg width="462px" height="355px" viewBox="0 0 462 355" version="1.1" xmlns:xlink="http://www.w3.org/1999/xlink" xmlns="http://www.w3.org/2000/svg">
  <g id="Group-6" transform="translate(0 270.61377)">
    <g fill="#242424" stroke="none" id="DAILY-BIBLE-VERSE-NOTIFICATION-APP" transform="translate(73.12305 63.91626)">
      <path d="M144.694 8.74343Q145.103 9.05828 145.103 9.63953Q145.103 10.1723 144.7 10.4963Q144.298 10.8202 143.498 10.8202Q142.572 10.8202 142.076 10.4085Q141.579 9.99675 141.579 9.24597L140.047 9.24597Q140.047 10.0755 140.492 10.6991Q140.937 11.3227 141.74 11.6769Q142.542 12.0311 143.498 12.0311Q144.945 12.0311 145.79 11.3802Q146.635 10.7294 146.635 9.62742Q146.635 8.94929 146.344 8.44373Q146.053 7.93816 145.43 7.54763Q144.806 7.1571 143.777 6.85134Q142.748 6.54558 142.3 6.22166Q141.852 5.89773 141.852 5.41335Q141.852 4.83816 142.266 4.51726Q142.681 4.19636 143.432 4.19636Q144.237 4.19636 144.67 4.58689Q145.103 4.97742 145.103 5.66765L146.629 5.66765Q146.629 4.90476 146.217 4.2781Q145.805 3.65144 145.085 3.31238Q144.364 2.97332 143.444 2.97332Q142.057 2.97332 141.189 3.66355Q140.32 4.35379 140.32 5.41941Q140.32 6.6364 141.525 7.39324Q142.154 7.78679 143.22 8.10769Q144.286 8.42859 144.694 8.74343ZM175.117 7.7323Q175.117 9.028 174.669 10.0058Q174.221 10.9837 173.389 11.5074Q172.556 12.0311 171.472 12.0311Q170.401 12.0311 169.562 11.5074Q168.723 10.9837 168.266 10.0149Q167.809 9.04617 167.803 7.78074L167.803 7.28425Q167.803 5.9946 168.26 5.00769Q168.717 4.02078 169.55 3.49705Q170.382 2.97332 171.46 2.97332Q172.538 2.97332 173.37 3.49099Q174.203 4.00867 174.657 4.98044Q175.111 5.95222 175.117 7.24187L175.117 7.7323ZM205.665 11.241Q206.573 10.4509 206.706 9.04011L205.181 9.04011Q205.06 9.98464 204.605 10.3903Q204.151 10.796 203.249 10.796Q202.262 10.796 201.751 10.0445Q201.239 9.29299 201.239 7.86285L201.239 7.08104Q201.251 5.66898 201.787 4.93872Q202.323 4.20847 203.322 4.20847Q204.182 4.20847 204.627 4.62927Q205.072 5.05007 205.181 6.00066L206.706 6.00066Q206.561 4.55359 205.671 3.76345Q204.781 2.97332 203.322 2.97332Q202.238 2.97332 201.412 3.48796Q200.585 4.00261 200.143 4.9532Q199.701 5.90378 199.701 7.15105L199.701 7.97449Q199.719 9.19148 200.155 10.1118Q200.591 11.0321 201.393 11.5316Q202.196 12.0311 203.249 12.0311Q204.757 12.0311 205.665 11.241ZM235.54 10.0058Q235.988 9.028 235.988 7.7323L235.988 7.24187Q235.982 5.95222 235.528 4.98044Q235.074 4.00867 234.242 3.49099Q233.409 2.97332 232.331 2.97332Q231.254 2.97332 230.421 3.49705Q229.589 4.02078 229.132 5.00769Q228.674 5.9946 228.674 7.28425L228.674 7.78074Q228.68 9.04617 229.138 10.0149Q229.595 10.9837 230.433 11.5074Q231.272 12.0311 232.344 12.0311Q233.427 12.0311 234.26 11.5074Q235.092 10.9837 235.54 10.0058ZM39.3648 3.09441L39.3648 11.91L41.9017 11.91Q43.0945 11.91 44.0178 11.3954Q44.9412 10.8807 45.4407 9.93015Q45.9402 8.97957 45.9402 7.72625L45.9402 7.28425Q45.9402 6.0491 45.4437 5.09246Q44.9472 4.13582 44.042 3.61511Q43.1369 3.09441 41.9683 3.09441L39.3648 3.09441ZM48.6712 11.91L49.3857 9.8575L52.8005 9.8575L53.521 11.91L55.1195 11.91L51.7833 3.09441L50.4089 3.09441L47.0789 11.91L48.6712 11.91ZM58.1351 11.91L56.6093 11.91L56.6093 3.09441L58.1351 3.09441L58.1351 11.91ZM65.9521 10.687L61.9499 10.687L61.9499 3.09441L60.4181 3.09441L60.4181 11.91L65.9521 11.91L65.9521 10.687ZM70.4027 7.27214L72.431 3.09441L74.1263 3.09441L71.1716 8.66472L71.1716 11.91L69.6337 11.91L69.6337 8.66472L66.673 3.09441L68.3744 3.09441L70.4027 7.27214ZM78.5708 3.09441L78.5708 11.91L81.7859 11.91C82.7748 11.91 83.5347 11.688 84.0655 11.244Q84.8617 10.578 84.8617 9.33679Q84.8617 8.58601 84.4711 8.05017Q84.0806 7.51433 83.3661 7.32058Q83.9958 7.05418 84.3228 6.5698Q84.6497 6.08542 84.6497 5.47996Q84.6497 4.29324 83.8687 3.69382Q83.0876 3.09441 81.5921 3.09441L78.5708 3.09441ZM88.4101 11.91L86.8843 11.91L86.8843 3.09441L88.4101 3.09441L88.4101 11.91ZM90.6931 3.09441L90.6931 11.91L93.9081 11.91C94.8971 11.91 95.6569 11.688 96.1877 11.244Q96.9839 10.578 96.9839 9.33679Q96.9839 8.58601 96.5934 8.05017Q96.2029 7.51433 95.4884 7.32058Q96.1181 7.05418 96.4451 6.5698Q96.772 6.08542 96.772 5.47996Q96.772 4.29324 95.991 3.69382Q95.2099 3.09441 93.7144 3.09441L90.6931 3.09441ZM100.448 10.687L104.45 10.687L104.45 11.91L98.9158 11.91L98.9158 3.09441L100.448 3.09441L100.448 10.687ZM107.556 7.97449L111.177 7.97449L111.177 6.76355L107.556 6.76355L107.556 4.32957L111.746 4.32957L111.746 3.09441L106.024 3.09441L106.024 11.91L111.788 11.91L111.788 10.687L107.556 10.687L107.556 7.97449ZM119.63 9.9907L121.87 3.09441L123.553 3.09441L120.38 11.91L118.897 11.91L115.736 3.09441L117.414 3.09441L119.63 9.9907ZM126.478 7.97449L130.099 7.97449L130.099 6.76355L126.478 6.76355L126.478 4.32957L130.668 4.32957L130.668 3.09441L124.946 3.09441L124.946 11.91L130.71 11.91L130.71 10.687L126.478 10.687L126.478 7.97449ZM135.597 8.51941L133.889 8.51941L133.889 11.91L132.357 11.91L132.357 3.09441L135.457 3.09441Q136.983 3.09441 137.813 3.77916Q138.642 4.4639 138.642 5.76074Q138.642 6.64548 138.215 7.24234Q137.788 7.8392 137.026 8.16039L139.005 11.8314L139.005 11.91L137.365 11.91L135.597 8.51941ZM153.531 7.97449L149.911 7.97449L149.911 10.687L154.143 10.687L154.143 11.91L148.379 11.91L148.379 3.09441L154.101 3.09441L154.101 4.32957L149.911 4.32957L149.911 6.76355L153.531 6.76355L153.531 7.97449ZM164.339 11.91L165.871 11.91L165.871 3.09441L164.352 3.09441L164.352 9.37312L160.41 3.09441L158.878 3.09441L158.878 11.91L160.41 11.91L160.41 5.65554L164.339 11.91ZM180.664 4.32957L183.412 4.32957L183.412 3.09441L176.419 3.09441L176.419 4.32957L179.144 4.32957L179.144 11.91L180.664 11.91L180.664 4.32957ZM186.586 11.91L185.06 11.91L185.06 3.09441L186.586 3.09441L186.586 11.91ZM190.4 8.17429L193.948 8.17429L193.948 6.95125L190.4 6.95125L190.4 4.32957L194.469 4.32957L194.469 3.09441L188.869 3.09441L188.869 11.91L190.4 11.91L190.4 8.17429ZM197.697 11.91L196.171 11.91L196.171 3.09441L197.697 3.09441L197.697 11.91ZM213.409 9.8575L209.994 9.8575L209.28 11.91L207.688 11.91L211.018 3.09441L212.392 3.09441L215.728 11.91L214.13 11.91L213.409 9.8575ZM220.748 4.32957L223.497 4.32957L223.497 3.09441L216.504 3.09441L216.504 4.32957L219.228 4.32957L219.228 11.91L220.748 11.91L220.748 4.32957ZM226.67 11.91L225.144 11.91L225.144 3.09441L226.67 3.09441L226.67 11.91ZM244.907 11.91L243.376 11.91L239.446 5.65554L239.446 11.91L237.914 11.91L237.914 3.09441L239.446 3.09441L243.388 9.37312L243.388 3.09441L244.907 3.09441L244.907 11.91ZM251.725 9.8575L255.14 9.8575L255.861 11.91L257.459 11.91L254.123 3.09441L252.749 3.09441L249.419 11.91L251.011 11.91L251.725 9.8575ZM260.39 8.6405L260.39 11.91L258.858 11.91L258.858 3.09441L262.231 3.09441Q263.708 3.09441 264.577 3.86421Q265.446 4.634 265.446 5.90076Q265.446 7.19788 264.595 7.91919Q263.744 8.6405 262.212 8.6405L260.39 8.6405ZM268.716 11.91L268.716 8.6405L270.538 8.6405Q272.07 8.6405 272.921 7.91919Q273.771 7.19788 273.771 5.90076Q273.771 4.634 272.902 3.86421Q272.034 3.09441 270.556 3.09441L267.184 3.09441L267.184 11.91L268.716 11.91ZM173.585 7.27214Q173.585 5.80691 173.031 5.02585Q172.477 4.2448 171.46 4.2448Q170.467 4.2448 169.907 5.02283Q169.347 5.80086 169.335 7.22371L169.335 7.7323Q169.335 9.18542 169.901 9.97859Q170.467 10.7718 171.472 10.7718Q172.489 10.7718 173.037 9.99675Q173.585 9.22175 173.585 7.7323L173.585 7.27214ZM233.903 5.02585Q234.457 5.80691 234.457 7.27214L234.457 7.7323Q234.457 9.22175 233.909 9.99675Q233.361 10.7718 232.344 10.7718Q231.338 10.7718 230.772 9.97859Q230.206 9.18542 230.206 7.7323L230.206 7.22371Q230.218 5.80086 230.778 5.02283Q231.338 4.2448 232.331 4.2448Q233.349 4.2448 233.903 5.02585ZM40.8966 10.687L40.8966 4.32957L41.9683 4.32957Q43.155 4.32957 43.7787 5.0864Q44.4023 5.84324 44.4023 7.2782L44.4023 7.76863Q44.3902 9.17937 43.7454 9.93318Q43.1005 10.687 41.8956 10.687L40.8966 10.687ZM81.6042 6.80593L80.1027 6.80593L80.1027 4.32957L81.5921 4.32957Q82.3792 4.32957 82.7516 4.62019Q83.124 4.91082 83.124 5.56472Q83.124 6.15808 82.7213 6.48201Q82.3187 6.80593 81.6042 6.80593ZM93.7265 6.80593L92.2249 6.80593L92.2249 4.32957L93.7144 4.32957Q94.5015 4.32957 94.8739 4.62019Q95.2462 4.91082 95.2462 5.56472Q95.2462 6.15808 94.8436 6.48201Q94.441 6.80593 93.7265 6.80593ZM133.889 7.28425L135.463 7.28425Q136.238 7.28425 136.674 6.89373Q137.11 6.5032 137.11 5.82507Q137.11 5.11667 136.708 4.72918Q136.305 4.34167 135.506 4.32957L133.889 4.32957L133.889 7.28425ZM260.39 7.40535L262.231 7.40535Q263.048 7.40535 263.478 7.02087Q263.908 6.6364 263.908 5.90984Q263.908 5.19539 263.472 4.76853Q263.036 4.34167 262.273 4.32957L260.39 4.32957L260.39 7.40535ZM270.556 7.40535L268.716 7.40535L268.716 4.32957L270.599 4.32957Q271.362 4.34167 271.797 4.76853Q272.233 5.19539 272.233 5.90984Q272.233 6.6364 271.803 7.02087Q271.374 7.40535 270.556 7.40535ZM51.0931 4.96531L52.3706 8.62234L49.8156 8.62234L51.0931 4.96531ZM211.702 4.96531L210.424 8.62234L212.979 8.62234L211.702 4.96531ZM254.71 8.62234L252.155 8.62234L253.433 4.96531L254.71 8.62234ZM80.1027 10.687L80.1027 7.9321L81.9312 7.9321Q83.3359 7.96238 83.3359 9.33679Q83.3359 9.97253 82.9302 10.3298Q82.5246 10.687 81.804 10.687L80.1027 10.687ZM92.2249 10.687L92.2249 7.9321L94.0535 7.9321Q95.4581 7.96238 95.4581 9.33679Q95.4581 9.97253 95.0525 10.3298Q94.6468 10.687 93.9263 10.687L92.2249 10.687Z" />
    </g>
    <g fill="#242424" stroke="none" id="Bible-Notify">
      <path d="M347.473 58.6098L347.473 32.3144L342.607 32.3144L342.607 25.9068L347.473 25.9068L347.473 23.1262Q347.473 17.6253 350.632 14.5877Q353.79 11.5501 359.472 11.5501Q361.286 11.5501 363.915 12.1546L363.825 18.9249Q362.737 18.6529 361.165 18.6529Q356.238 18.6529 356.238 23.2773L356.238 25.9068L362.737 25.9068L362.737 32.3144L356.238 32.3144L356.238 58.6098L347.473 58.6098ZM152.233 54.8167Q155.588 50.419 155.588 42.5606L155.588 42.077Q155.588 34.0977 152.188 29.7Q148.787 25.3023 142.803 25.3023Q137.876 25.3023 134.854 28.8386L134.854 12.1848L126.119 12.1848L126.119 58.6098L133.977 58.6098L134.37 55.134Q137.544 59.2143 142.863 59.2143Q148.878 59.2143 152.233 54.8167ZM170.587 58.6098L161.821 58.6098L161.821 12.1848L170.587 12.1848L170.587 58.6098ZM109.247 17.4439Q109.247 15.4793 110.561 14.2099Q111.876 12.9405 114.143 12.9405Q116.38 12.9405 117.709 14.2099Q119.039 15.4793 119.039 17.4439Q119.039 19.4388 117.694 20.7082Q116.349 21.9776 114.143 21.9776Q111.937 21.9776 110.592 20.7082Q109.247 19.4388 109.247 17.4439ZM329.528 14.2099Q328.213 15.4793 328.213 17.4439Q328.213 19.4388 329.558 20.7082Q330.903 21.9776 333.109 21.9776Q335.316 21.9776 336.661 20.7082Q338.006 19.4388 338.006 17.4439Q338.006 15.4793 336.676 14.2099Q335.346 12.9405 333.109 12.9405Q330.843 12.9405 329.528 14.2099ZM69.9778 58.6098L69.9778 14.6028L85.3923 14.6028Q93.4018 14.6028 97.5426 17.6706Q101.683 20.7384 101.683 26.6624Q101.683 29.8965 100.021 32.3598Q98.3587 34.8231 95.3967 35.9716Q98.7818 36.8179 100.731 39.387Q102.681 41.9561 102.681 45.6737Q102.681 52.0209 98.6307 55.2851Q94.5806 58.5494 87.0849 58.6098L69.9778 58.6098ZM263.813 58.6098L254.746 58.6098L237.095 29.6547L237.095 58.6098L228.027 58.6098L228.027 14.6028L237.095 14.6028L254.776 43.6184L254.776 14.6028L263.813 14.6028L263.813 58.6098ZM317.416 17.8671L317.416 25.9068L323.007 25.9068L323.007 32.3144L317.416 32.3144L317.416 48.6357Q317.416 50.4492 318.111 51.235Q318.806 52.0209 320.771 52.0209Q322.221 52.0209 323.34 51.8093L323.34 58.4285Q320.771 59.2143 318.05 59.2143Q308.862 59.2143 308.681 49.9354L308.681 32.3144L303.905 32.3144L303.905 25.9068L308.681 25.9068L308.681 17.8671L317.416 17.8671ZM79.0451 33.0398L85.755 33.0398Q92.616 32.9189 92.616 27.5692Q92.616 24.5769 90.8781 23.2622Q89.1402 21.9474 85.3923 21.9474L79.0451 21.9474L79.0451 33.0398ZM181.52 54.8015Q186.038 59.2143 193.232 59.2143Q197.312 59.2143 200.667 57.6578Q204.022 56.1012 205.987 53.3205L201.695 48.5148Q198.854 52.172 193.806 52.172Q190.542 52.172 188.411 50.2376Q186.28 48.3033 185.857 45.0994L206.682 45.0994L206.682 41.5329Q206.682 33.7652 202.828 29.5338Q198.974 25.3023 192.265 25.3023Q187.791 25.3023 184.3 27.4029Q180.809 29.5035 178.905 33.3874Q177.001 37.2713 177.001 42.1979L177.001 43.0442Q177.001 50.3887 181.52 54.8015ZM272.072 33.2816Q270.198 37.0899 270.198 41.9561L270.198 42.349Q270.198 50.147 274.414 54.6806Q278.63 59.2143 285.703 59.2143Q292.776 59.2143 296.977 54.6655Q301.178 50.1167 301.178 42.5908L301.118 40.3542Q300.634 33.4025 296.448 29.3524Q292.262 25.3023 285.643 25.3023Q280.988 25.3023 277.467 27.3878Q273.946 29.4733 272.072 33.2816ZM109.76 58.6098L109.76 25.9068L118.526 25.9068L118.526 58.6098L109.76 58.6098ZM328.727 25.9068L328.727 58.6098L337.492 58.6098L337.492 25.9068L328.727 25.9068ZM385.926 25.9068L379.881 46.248L373.806 25.9068L364.406 25.9068L375.861 58.7005L374.834 61.3905Q374.138 63.1435 372.914 63.8992Q371.69 64.6548 369.212 64.6548L367.882 64.6245L367.882 71.2437Q369.846 71.818 371.751 71.818Q378.491 71.818 381.422 65.4104L382.148 63.6876L395.296 25.9068L385.926 25.9068ZM188.018 34.1055Q189.635 32.3447 192.234 32.3447Q195.015 32.3447 196.526 33.9385Q198.038 35.5324 198.098 38.4467L198.098 39.1452L185.948 39.1452Q186.401 35.8663 188.018 34.1055ZM280.686 49.7049Q278.933 47.2378 278.933 42.5762Q278.933 37.3393 280.686 34.842Q282.439 32.3447 285.643 32.3447Q288.877 32.3447 290.66 34.8571Q292.443 37.3695 292.443 41.9405Q292.443 47.2983 290.66 49.7351Q288.877 52.172 285.703 52.172Q282.439 52.172 280.686 49.7049ZM145.281 34.6871Q146.853 36.969 146.853 41.9259Q146.853 46.0062 146.218 48.001Q144.889 52.172 140.657 52.172Q136.456 52.172 134.854 48.7264L134.854 35.8205Q136.426 32.4051 140.597 32.4051Q143.71 32.4051 145.281 34.6871ZM79.0451 39.4474L79.0451 51.3257L86.8129 51.3257Q90.0167 51.3257 91.815 49.7994Q93.6134 48.273 93.6134 45.583Q93.6134 39.5381 87.3569 39.4474L79.0451 39.4474Z" />
    </g>
  </g>
  <path d="M798.525 391.556C822.703 338.235 796.573 271.685 896.974 271.685C997.375 271.685 1031.96 253.896 1104.72 309.891C1177.47 365.886 1138.72 481.244 1115.12 505.696C1096.93 524.552 924.644 527.307 852.736 515.247C749.083 497.864 774.346 444.877 798.525 391.556Z" id="Rectangle-10" fill="#EBF0F0" fill-rule="evenodd" stroke="none" />
  <g id="Group-7" transform="translate(149.4668 144.74658)">
    <path d="M2.42376 5.39746L77.835 8.45489L75.9625 70.7166C75.9625 70.7166 45.8483 68.3737 26.8049 68.3737C7.76156 68.3737 1.99886e-06 70.7166 1.99886e-06 70.7166L2.42376 5.39746Z" id="Rectangle-15" fill="#242424" fill-rule="evenodd" stroke="#242424" stroke-width="0.5" stroke-linecap="round" stroke-linejoin="round" />
    <path d="M82.1836 8.49957L115.178 7.16187L157.595 5.44214L159.868 73.3022C159.868 73.3022 138.178 68.2106 119.325 68.975C100.473 69.7393 84.0561 70.7613 84.0561 70.7613L82.1836 8.49957Z" id="Rectangle-15-Copy" fill="#242424" fill-rule="evenodd" stroke="#242424" stroke-width="0.5" stroke-linejoin="round" />
    <path d="M8.86022 2.97526C8.86022 2.97526 16.47 -0.619743 34.5003 0.0936963C52.5315 0.807136 80.9848 5.82902 80.9848 5.82902L79.066 68.0907C79.066 68.0907 50.8812 62.1054 32.85 61.392C14.8189 60.6788 6.94141 65.237 6.94141 65.237L8.86022 2.97526Z" id="Rectangle-12" fill="#FFFFFF" fill-rule="evenodd" stroke="#242424" stroke-width="2" />
    <path d="M79.0547 5.82909C79.0547 5.82909 86.4245 1.64137 104.455 0.927935C122.486 0.214496 151.179 2.97533 151.179 2.97533L153.098 65.2371C153.098 65.2371 124.613 61.4942 106.582 62.2077C88.5506 62.9209 80.9735 68.0908 80.9735 68.0908L79.0547 5.82909Z" id="Rectangle-12-Copy" fill="#FFFFFF" fill-rule="evenodd" stroke="#242424" stroke-width="2" />
    <path d="M76.2086 68.5196C76.2086 68.5196 77.8832 69.0298 79.6657 68.92C81.4483 68.8101 83.3388 68.0801 83.3388 68.0801L85.2192 84.7389L80.0208 80.9881L75.1582 84.7389L76.2086 68.5196Z" id="Rectangle-13" fill="#A34444" fill-rule="evenodd" stroke="#242424" stroke-width="2" stroke-linejoin="round" />
  </g>
  <path d="M896.479 338.227L1001.24 338.227Q1001.39 338.227 1001.54 338.241Q1001.68 338.256 1001.83 338.284Q1001.97 338.313 1002.11 338.356Q1002.25 338.399 1002.39 338.455Q1002.53 338.511 1002.66 338.581Q1002.79 338.65 1002.91 338.732Q1003.03 338.814 1003.15 338.908Q1003.26 339.001 1003.36 339.105Q1003.47 339.209 1003.56 339.323Q1003.65 339.437 1003.74 339.56Q1003.82 339.682 1003.89 339.812Q1003.96 339.942 1004.01 340.078Q1004.07 340.214 1004.11 340.355Q1004.16 340.496 1004.18 340.641Q1004.21 340.785 1004.23 340.932Q1004.24 341.078 1004.24 341.226L1004.24 368.128Q1004.24 368.275 1004.23 368.422Q1004.21 368.568 1004.18 368.713Q1004.16 368.857 1004.11 368.998Q1004.07 369.139 1004.01 369.275Q1003.96 369.411 1003.89 369.541Q1003.82 369.671 1003.74 369.794Q1003.65 369.916 1003.56 370.03Q1003.47 370.144 1003.36 370.248Q1003.26 370.352 1003.15 370.446Q1003.03 370.539 1002.91 370.621Q1002.79 370.703 1002.66 370.772Q1002.53 370.842 1002.39 370.898Q1002.25 370.955 1002.11 370.997Q1001.97 371.04 1001.83 371.069Q1001.68 371.098 1001.54 371.112Q1001.39 371.127 1001.24 371.127L896.479 371.127Q896.331 371.127 896.185 371.112Q896.038 371.098 895.893 371.069Q895.749 371.04 895.608 370.997Q895.467 370.955 895.331 370.898Q895.195 370.842 895.065 370.773Q894.935 370.703 894.812 370.621Q894.69 370.539 894.576 370.446Q894.462 370.352 894.358 370.248Q894.254 370.144 894.16 370.03Q894.067 369.916 893.985 369.794Q893.903 369.671 893.834 369.541Q893.764 369.411 893.708 369.275Q893.651 369.139 893.609 368.998Q893.566 368.857 893.537 368.713Q893.508 368.568 893.494 368.422Q893.48 368.275 893.479 368.128L893.479 341.226Q893.48 341.078 893.494 340.932Q893.508 340.785 893.537 340.641Q893.566 340.496 893.609 340.355Q893.651 340.214 893.708 340.078Q893.764 339.942 893.834 339.812Q893.903 339.682 893.985 339.56Q894.067 339.437 894.16 339.323Q894.254 339.209 894.358 339.105Q894.462 339.001 894.576 338.908Q894.69 338.814 894.812 338.732Q894.935 338.65 895.065 338.581Q895.195 338.511 895.331 338.455Q895.467 338.399 895.608 338.356Q895.749 338.313 895.893 338.284Q896.038 338.256 896.185 338.241Q896.331 338.227 896.479 338.227Z" id="Rectangle-11" fill="#FFFFFF" fill-rule="evenodd" stroke="#242424" stroke-width="2" />
  <path d="M904.492 352.948C904.492 349.162 907.561 346.094 911.346 346.094C915.132 346.094 918.2 349.162 918.2 352.948C918.2 356.733 915.132 359.802 911.346 359.802C907.561 359.802 904.492 356.733 904.492 352.948Z" id="Ellipse" fill="#82DB78" fill-rule="evenodd" stroke="#000000" stroke-width="2" />
  <path d="M924.945 350.408L990.745 350.408" id="Line-2" fill="#5ED885" fill-rule="evenodd" stroke="#242424" stroke-width="2" stroke-linecap="round" />
  <path d="M921.8 358.275L982.116 358.275" id="Line-2-Copy" fill="#5ED885" fill-rule="evenodd" stroke="#242424" stroke-width="2" stroke-linecap="round" />
  <path d="M952.118 311.48L1014.98 311.48Q1015.08 311.48 1015.17 311.49Q1015.27 311.499 1015.37 311.518Q1015.46 311.538 1015.56 311.566Q1015.65 311.595 1015.74 311.632Q1015.83 311.67 1015.92 311.716Q1016.01 311.762 1016.09 311.817Q1016.17 311.871 1016.25 311.934Q1016.32 311.996 1016.39 312.065Q1016.46 312.135 1016.52 312.211Q1016.58 312.287 1016.64 312.368Q1016.69 312.45 1016.74 312.537Q1016.79 312.623 1016.82 312.714Q1016.86 312.805 1016.89 312.899Q1016.92 312.993 1016.94 313.089Q1016.96 313.185 1016.97 313.283Q1016.98 313.381 1016.98 313.479L1016.98 329.34Q1016.98 329.438 1016.97 329.535Q1016.96 329.633 1016.94 329.729Q1016.92 329.826 1016.89 329.92Q1016.86 330.014 1016.82 330.104Q1016.79 330.195 1016.74 330.282Q1016.69 330.368 1016.64 330.45Q1016.58 330.532 1016.52 330.608Q1016.46 330.684 1016.39 330.753Q1016.32 330.822 1016.25 330.885Q1016.17 330.947 1016.09 331.002Q1016.01 331.056 1015.92 331.102Q1015.83 331.149 1015.74 331.186Q1015.65 331.224 1015.56 331.252Q1015.46 331.281 1015.37 331.3Q1015.27 331.319 1015.17 331.329Q1015.08 331.339 1014.98 331.339L952.118 331.339Q952.02 331.339 951.922 331.329Q951.824 331.319 951.728 331.3Q951.632 331.281 951.538 331.252Q951.444 331.224 951.353 331.186Q951.262 331.149 951.176 331.102Q951.089 331.056 951.007 331.002Q950.926 330.947 950.85 330.885Q950.774 330.822 950.705 330.753Q950.635 330.684 950.573 330.608Q950.511 330.532 950.456 330.45Q950.401 330.368 950.355 330.282Q950.309 330.195 950.271 330.104Q950.234 330.014 950.205 329.92Q950.177 329.826 950.158 329.729Q950.138 329.633 950.129 329.535Q950.119 329.438 950.119 329.34L950.119 313.479Q950.119 313.381 950.129 313.283Q950.138 313.185 950.157 313.089Q950.177 312.993 950.205 312.899Q950.234 312.805 950.271 312.714Q950.309 312.623 950.355 312.537Q950.401 312.45 950.456 312.368Q950.511 312.287 950.573 312.211Q950.635 312.135 950.705 312.065Q950.774 311.996 950.85 311.934Q950.926 311.871 951.007 311.817Q951.089 311.762 951.176 311.716Q951.262 311.67 951.353 311.632Q951.444 311.595 951.538 311.566Q951.632 311.538 951.728 311.518Q951.824 311.499 951.922 311.49Q952.02 311.48 952.118 311.48Z" id="Rectangle-16-Copy-2" fill="#FFFFFF" fill-rule="evenodd" stroke="#242424" stroke-width="2" />
  <path d="M956.413 318.763C956.413 316.479 958.265 314.626 960.55 314.626C962.835 314.626 964.688 316.479 964.688 318.763C964.688 321.048 962.835 322.901 960.55 322.901C958.265 322.901 956.413 321.048 956.413 318.763Z" id="Ellipse-Copy-2" fill="#82DB78" fill-rule="evenodd" stroke="#242424" stroke-width="2" />
  <path d="M969 317.855L1008.72 317.855" id="Line-2-Copy-4" fill="#5ED885" fill-rule="evenodd" stroke="#242424" stroke-width="0.5" stroke-linecap="round" />
  <path d="M969 322.575L1005.41 322.575" id="Line-2-Copy-5" fill="#5ED885" fill-rule="evenodd" stroke="#242424" stroke-width="0.5" stroke-linecap="round" />
  <path d="M948.398 377.56L1032.63 377.56Q1032.77 377.56 1032.92 377.575Q1033.07 377.589 1033.21 377.618Q1033.36 377.646 1033.5 377.689Q1033.64 377.732 1033.77 377.788Q1033.91 377.845 1034.04 377.914Q1034.17 377.984 1034.29 378.065Q1034.41 378.147 1034.53 378.241Q1034.64 378.334 1034.75 378.438Q1034.85 378.543 1034.94 378.656Q1035.04 378.77 1035.12 378.893Q1035.2 379.015 1035.27 379.145Q1035.34 379.275 1035.4 379.411Q1035.45 379.548 1035.5 379.689Q1035.54 379.829 1035.57 379.974Q1035.6 380.118 1035.61 380.265Q1035.62 380.412 1035.62 380.559L1035.62 401.361Q1035.62 401.508 1035.61 401.655Q1035.6 401.801 1035.57 401.946Q1035.54 402.09 1035.5 402.231Q1035.45 402.372 1035.4 402.508Q1035.34 402.645 1035.27 402.774Q1035.2 402.904 1035.12 403.027Q1035.04 403.149 1034.94 403.263Q1034.85 403.377 1034.75 403.481Q1034.64 403.586 1034.53 403.679Q1034.41 403.772 1034.29 403.854Q1034.17 403.936 1034.04 404.006Q1033.91 404.075 1033.77 404.131Q1033.64 404.188 1033.5 404.231Q1033.36 404.273 1033.21 404.302Q1033.07 404.331 1032.92 404.345Q1032.77 404.36 1032.63 404.36L948.398 404.36Q948.251 404.36 948.104 404.345Q947.958 404.331 947.813 404.302Q947.669 404.273 947.528 404.231Q947.387 404.188 947.251 404.131Q947.115 404.075 946.985 404.006Q946.855 403.936 946.732 403.854Q946.61 403.772 946.496 403.679Q946.382 403.586 946.278 403.481Q946.174 403.377 946.08 403.263Q945.987 403.149 945.905 403.027Q945.823 402.904 945.753 402.774Q945.684 402.645 945.628 402.508Q945.571 402.372 945.529 402.231Q945.486 402.09 945.457 401.946Q945.428 401.801 945.414 401.655Q945.399 401.508 945.399 401.361L945.399 380.559Q945.399 380.412 945.414 380.265Q945.428 380.118 945.457 379.974Q945.486 379.829 945.529 379.689Q945.571 379.548 945.628 379.411Q945.684 379.275 945.753 379.145Q945.823 379.015 945.905 378.893Q945.987 378.77 946.08 378.656Q946.174 378.543 946.278 378.438Q946.382 378.334 946.496 378.241Q946.61 378.147 946.732 378.065Q946.855 377.984 946.985 377.914Q947.115 377.845 947.251 377.788Q947.387 377.732 947.528 377.689Q947.669 377.646 947.813 377.618Q947.958 377.589 948.105 377.575Q948.251 377.56 948.398 377.56Z" id="Rectangle-16-Copy-3" fill="#FFFFFF" fill-rule="evenodd" stroke="#242424" stroke-width="2" />
  <path d="M953.266 387.863C953.266 384.78 955.765 382.28 958.849 382.28C961.932 382.28 964.432 384.78 964.432 387.863C964.432 390.947 961.932 393.447 958.849 393.447C955.765 393.447 953.266 390.947 953.266 387.863Z" id="Ellipse-Copy-3" fill="#82DB78" fill-rule="evenodd" stroke="#242424" stroke-width="2" />
  <path d="M970.572 389.233L1024.17 389.233" id="Line-2-Copy-6" fill="#82DB78" fill-rule="evenodd" stroke="#242424" stroke-width="2" stroke-linecap="round" />
  <path d="M970.572 395.527L1019.71 395.527" id="Line-2-Copy-7" fill="#82DB78" fill-rule="evenodd" stroke="#242424" stroke-width="2" stroke-linecap="round" />
</svg>