<?xml version="1.0" encoding="utf-8"?>
<svg width="464px" height="357px" viewBox="0 0 464 357" version="1.1" xmlns:xlink="http://www.w3.org/1999/xlink" xmlns="http://www.w3.org/2000/svg">
  <g id="Group-9" transform="translate(1 1)">
    <g id="Group-6" transform="translate(0 270.61377)">
      <g fill="#242424" stroke="none" id="DAILY-BIBLE-VERSE-NOTIFICATION-APP" transform="translate(73.12305 63.91626)">
        <path d="M144.694 8.74343Q145.103 9.05828 145.103 9.63953Q145.103 10.1723 144.7 10.4963Q144.298 10.8202 143.498 10.8202Q142.572 10.8202 142.076 10.4085Q141.579 9.99675 141.579 9.24597L140.047 9.24597Q140.047 10.0755 140.492 10.6991Q140.937 11.3227 141.74 11.6769Q142.542 12.0311 143.498 12.0311Q144.945 12.0311 145.79 11.3802Q146.635 10.7294 146.635 9.62742Q146.635 8.94929 146.344 8.44373Q146.053 7.93816 145.43 7.54763Q144.806 7.1571 143.777 6.85134Q142.748 6.54558 142.3 6.22166Q141.852 5.89773 141.852 5.41335Q141.852 4.83816 142.266 4.51726Q142.681 4.19636 143.432 4.19636Q144.237 4.19636 144.67 4.58689Q145.103 4.97742 145.103 5.66765L146.629 5.66765Q146.629 4.90476 146.217 4.2781Q145.805 3.65144 145.085 3.31238Q144.364 2.97332 143.444 2.97332Q142.057 2.97332 141.189 3.66355Q140.32 4.35379 140.32 5.41941Q140.32 6.6364 141.525 7.39324Q142.154 7.78679 143.22 8.10769Q144.286 8.42859 144.694 8.74343ZM175.117 7.7323Q175.117 9.028 174.669 10.0058Q174.221 10.9837 173.389 11.5074Q172.556 12.0311 171.472 12.0311Q170.401 12.0311 169.562 11.5074Q168.723 10.9837 168.266 10.0149Q167.809 9.04617 167.803 7.78074L167.803 7.28425Q167.803 5.9946 168.26 5.00769Q168.717 4.02078 169.55 3.49705Q170.382 2.97332 171.46 2.97332Q172.538 2.97332 173.37 3.49099Q174.203 4.00867 174.657 4.98044Q175.111 5.95222 175.117 7.24187L175.117 7.7323ZM205.665 11.241Q206.573 10.4509 206.706 9.04011L205.181 9.04011Q205.06 9.98464 204.605 10.3903Q204.151 10.796 203.249 10.796Q202.262 10.796 201.751 10.0445Q201.239 9.29299 201.239 7.86285L201.239 7.08104Q201.251 5.66898 201.787 4.93872Q202.323 4.20847 203.322 4.20847Q204.182 4.20847 204.627 4.62927Q205.072 5.05007 205.181 6.00066L206.706 6.00066Q206.561 4.55359 205.671 3.76345Q204.781 2.97332 203.322 2.97332Q202.238 2.97332 201.412 3.48796Q200.585 4.00261 200.143 4.9532Q199.701 5.90378 199.701 7.15105L199.701 7.97449Q199.719 9.19148 200.155 10.1118Q200.591 11.0321 201.393 11.5316Q202.196 12.0311 203.249 12.0311Q204.757 12.0311 205.665 11.241ZM235.54 10.0058Q235.988 9.028 235.988 7.7323L235.988 7.24187Q235.982 5.95222 235.528 4.98044Q235.074 4.00867 234.242 3.49099Q233.409 2.97332 232.331 2.97332Q231.254 2.97332 230.421 3.49705Q229.589 4.02078 229.132 5.00769Q228.674 5.9946 228.674 7.28425L228.674 7.78074Q228.68 9.04617 229.138 10.0149Q229.595 10.9837 230.433 11.5074Q231.272 12.0311 232.344 12.0311Q233.427 12.0311 234.26 11.5074Q235.092 10.9837 235.54 10.0058ZM39.3648 3.09441L39.3648 11.91L41.9017 11.91Q43.0945 11.91 44.0178 11.3954Q44.9412 10.8807 45.4407 9.93015Q45.9402 8.97957 45.9402 7.72625L45.9402 7.28425Q45.9402 6.0491 45.4437 5.09246Q44.9472 4.13582 44.042 3.61511Q43.1369 3.09441 41.9683 3.09441L39.3648 3.09441ZM48.6712 11.91L49.3857 9.8575L52.8005 9.8575L53.521 11.91L55.1195 11.91L51.7833 3.09441L50.4089 3.09441L47.0789 11.91L48.6712 11.91ZM58.1351 11.91L56.6093 11.91L56.6093 3.09441L58.1351 3.09441L58.1351 11.91ZM65.9521 10.687L61.9499 10.687L61.9499 3.09441L60.4181 3.09441L60.4181 11.91L65.9521 11.91L65.9521 10.687ZM70.4027 7.27214L72.431 3.09441L74.1263 3.09441L71.1716 8.66472L71.1716 11.91L69.6337 11.91L69.6337 8.66472L66.673 3.09441L68.3744 3.09441L70.4027 7.27214ZM78.5708 3.09441L78.5708 11.91L81.7859 11.91C82.7748 11.91 83.5347 11.688 84.0655 11.244Q84.8617 10.578 84.8617 9.33679Q84.8617 8.58601 84.4711 8.05017Q84.0806 7.51433 83.3661 7.32058Q83.9958 7.05418 84.3228 6.5698Q84.6497 6.08542 84.6497 5.47996Q84.6497 4.29324 83.8687 3.69382Q83.0876 3.09441 81.5921 3.09441L78.5708 3.09441ZM88.4101 11.91L86.8843 11.91L86.8843 3.09441L88.4101 3.09441L88.4101 11.91ZM90.6931 3.09441L90.6931 11.91L93.9081 11.91C94.8971 11.91 95.6569 11.688 96.1877 11.244Q96.9839 10.578 96.9839 9.33679Q96.9839 8.58601 96.5934 8.05017Q96.2029 7.51433 95.4884 7.32058Q96.1181 7.05418 96.4451 6.5698Q96.772 6.08542 96.772 5.47996Q96.772 4.29324 95.991 3.69382Q95.2099 3.09441 93.7144 3.09441L90.6931 3.09441ZM100.448 10.687L104.45 10.687L104.45 11.91L98.9158 11.91L98.9158 3.09441L100.448 3.09441L100.448 10.687ZM107.556 7.97449L111.177 7.97449L111.177 6.76355L107.556 6.76355L107.556 4.32957L111.746 4.32957L111.746 3.09441L106.024 3.09441L106.024 11.91L111.788 11.91L111.788 10.687L107.556 10.687L107.556 7.97449ZM119.63 9.9907L121.87 3.09441L123.553 3.09441L120.38 11.91L118.897 11.91L115.736 3.09441L117.414 3.09441L119.63 9.9907ZM126.478 7.97449L130.099 7.97449L130.099 6.76355L126.478 6.76355L126.478 4.32957L130.668 4.32957L130.668 3.09441L124.946 3.09441L124.946 11.91L130.71 11.91L130.71 10.687L126.478 10.687L126.478 7.97449ZM135.597 8.51941L133.889 8.51941L133.889 11.91L132.357 11.91L132.357 3.09441L135.457 3.09441Q136.983 3.09441 137.813 3.77916Q138.642 4.4639 138.642 5.76074Q138.642 6.64548 138.215 7.24234Q137.788 7.8392 137.026 8.16039L139.005 11.8314L139.005 11.91L137.365 11.91L135.597 8.51941ZM153.531 7.97449L149.911 7.97449L149.911 10.687L154.143 10.687L154.143 11.91L148.379 11.91L148.379 3.09441L154.101 3.09441L154.101 4.32957L149.911 4.32957L149.911 6.76355L153.531 6.76355L153.531 7.97449ZM164.339 11.91L165.871 11.91L165.871 3.09441L164.352 3.09441L164.352 9.37312L160.41 3.09441L158.878 3.09441L158.878 11.91L160.41 11.91L160.41 5.65554L164.339 11.91ZM180.664 4.32957L183.412 4.32957L183.412 3.09441L176.419 3.09441L176.419 4.32957L179.144 4.32957L179.144 11.91L180.664 11.91L180.664 4.32957ZM186.586 11.91L185.06 11.91L185.06 3.09441L186.586 3.09441L186.586 11.91ZM190.4 8.17429L193.948 8.17429L193.948 6.95125L190.4 6.95125L190.4 4.32957L194.469 4.32957L194.469 3.09441L188.869 3.09441L188.869 11.91L190.4 11.91L190.4 8.17429ZM197.697 11.91L196.171 11.91L196.171 3.09441L197.697 3.09441L197.697 11.91ZM213.409 9.8575L209.994 9.8575L209.28 11.91L207.688 11.91L211.018 3.09441L212.392 3.09441L215.728 11.91L214.13 11.91L213.409 9.8575ZM220.748 4.32957L223.497 4.32957L223.497 3.09441L216.504 3.09441L216.504 4.32957L219.228 4.32957L219.228 11.91L220.748 11.91L220.748 4.32957ZM226.67 11.91L225.144 11.91L225.144 3.09441L226.67 3.09441L226.67 11.91ZM244.907 11.91L243.376 11.91L239.446 5.65554L239.446 11.91L237.914 11.91L237.914 3.09441L239.446 3.09441L243.388 9.37312L243.388 3.09441L244.907 3.09441L244.907 11.91ZM251.725 9.8575L255.14 9.8575L255.861 11.91L257.459 11.91L254.123 3.09441L252.749 3.09441L249.419 11.91L251.011 11.91L251.725 9.8575ZM260.39 8.6405L260.39 11.91L258.858 11.91L258.858 3.09441L262.231 3.09441Q263.708 3.09441 264.577 3.86421Q265.446 4.634 265.446 5.90076Q265.446 7.19788 264.595 7.91919Q263.744 8.6405 262.212 8.6405L260.39 8.6405ZM268.716 11.91L268.716 8.6405L270.538 8.6405Q272.07 8.6405 272.921 7.91919Q273.771 7.19788 273.771 5.90076Q273.771 4.634 272.902 3.86421Q272.034 3.09441 270.556 3.09441L267.184 3.09441L267.184 11.91L268.716 11.91ZM173.585 7.27214Q173.585 5.80691 173.031 5.02585Q172.477 4.2448 171.46 4.2448Q170.467 4.2448 169.907 5.02283Q169.347 5.80086 169.335 7.22371L169.335 7.7323Q169.335 9.18542 169.901 9.97859Q170.467 10.7718 171.472 10.7718Q172.489 10.7718 173.037 9.99675Q173.585 9.22175 173.585 7.7323L173.585 7.27214ZM233.903 5.02585Q234.457 5.80691 234.457 7.27214L234.457 7.7323Q234.457 9.22175 233.909 9.99675Q233.361 10.7718 232.344 10.7718Q231.338 10.7718 230.772 9.97859Q230.206 9.18542 230.206 7.7323L230.206 7.22371Q230.218 5.80086 230.778 5.02283Q231.338 4.2448 232.331 4.2448Q233.349 4.2448 233.903 5.02585ZM40.8966 10.687L40.8966 4.32957L41.9683 4.32957Q43.155 4.32957 43.7787 5.0864Q44.4023 5.84324 44.4023 7.2782L44.4023 7.76863Q44.3902 9.17937 43.7454 9.93318Q43.1005 10.687 41.8956 10.687L40.8966 10.687ZM81.6042 6.80593L80.1027 6.80593L80.1027 4.32957L81.5921 4.32957Q82.3792 4.32957 82.7516 4.62019Q83.124 4.91082 83.124 5.56472Q83.124 6.15808 82.7213 6.48201Q82.3187 6.80593 81.6042 6.80593ZM93.7265 6.80593L92.2249 6.80593L92.2249 4.32957L93.7144 4.32957Q94.5015 4.32957 94.8739 4.62019Q95.2462 4.91082 95.2462 5.56472Q95.2462 6.15808 94.8436 6.48201Q94.441 6.80593 93.7265 6.80593ZM133.889 7.28425L135.463 7.28425Q136.238 7.28425 136.674 6.89373Q137.11 6.5032 137.11 5.82507Q137.11 5.11667 136.708 4.72918Q136.305 4.34167 135.506 4.32957L133.889 4.32957L133.889 7.28425ZM260.39 7.40535L262.231 7.40535Q263.048 7.40535 263.478 7.02087Q263.908 6.6364 263.908 5.90984Q263.908 5.19539 263.472 4.76853Q263.036 4.34167 262.273 4.32957L260.39 4.32957L260.39 7.40535ZM270.556 7.40535L268.716 7.40535L268.716 4.32957L270.599 4.32957Q271.362 4.34167 271.797 4.76853Q272.233 5.19539 272.233 5.90984Q272.233 6.6364 271.803 7.02087Q271.374 7.40535 270.556 7.40535ZM51.0931 4.96531L52.3706 8.62234L49.8156 8.62234L51.0931 4.96531ZM211.702 4.96531L210.424 8.62234L212.979 8.62234L211.702 4.96531ZM254.71 8.62234L252.155 8.62234L253.433 4.96531L254.71 8.62234ZM80.1027 10.687L80.1027 7.9321L81.9312 7.9321Q83.3359 7.96238 83.3359 9.33679Q83.3359 9.97253 82.9302 10.3298Q82.5246 10.687 81.804 10.687L80.1027 10.687ZM92.2249 10.687L92.2249 7.9321L94.0535 7.9321Q95.4581 7.96238 95.4581 9.33679Q95.4581 9.97253 95.0525 10.3298Q94.6468 10.687 93.9263 10.687L92.2249 10.687Z" />
      </g>
      <g fill="#242424" stroke="none" id="Bible-Notify">
        <path d="M347.473 58.6098L347.473 32.3144L342.607 32.3144L342.607 25.9068L347.473 25.9068L347.473 23.1262Q347.473 17.6253 350.632 14.5877Q353.79 11.5501 359.472 11.5501Q361.286 11.5501 363.915 12.1546L363.825 18.9249Q362.737 18.6529 361.165 18.6529Q356.238 18.6529 356.238 23.2773L356.238 25.9068L362.737 25.9068L362.737 32.3144L356.238 32.3144L356.238 58.6098L347.473 58.6098ZM152.233 54.8167Q155.588 50.419 155.588 42.5606L155.588 42.077Q155.588 34.0977 152.188 29.7Q148.787 25.3023 142.803 25.3023Q137.876 25.3023 134.854 28.8386L134.854 12.1848L126.119 12.1848L126.119 58.6098L133.977 58.6098L134.37 55.134Q137.544 59.2143 142.863 59.2143Q148.878 59.2143 152.233 54.8167ZM170.587 58.6098L161.821 58.6098L161.821 12.1848L170.587 12.1848L170.587 58.6098ZM109.247 17.4439Q109.247 15.4793 110.561 14.2099Q111.876 12.9405 114.143 12.9405Q116.38 12.9405 117.709 14.2099Q119.039 15.4793 119.039 17.4439Q119.039 19.4388 117.694 20.7082Q116.349 21.9776 114.143 21.9776Q111.937 21.9776 110.592 20.7082Q109.247 19.4388 109.247 17.4439ZM329.528 14.2099Q328.213 15.4793 328.213 17.4439Q328.213 19.4388 329.558 20.7082Q330.903 21.9776 333.109 21.9776Q335.316 21.9776 336.661 20.7082Q338.006 19.4388 338.006 17.4439Q338.006 15.4793 336.676 14.2099Q335.346 12.9405 333.109 12.9405Q330.843 12.9405 329.528 14.2099ZM69.9778 58.6098L69.9778 14.6028L85.3923 14.6028Q93.4018 14.6028 97.5426 17.6706Q101.683 20.7384 101.683 26.6624Q101.683 29.8965 100.021 32.3598Q98.3587 34.8231 95.3967 35.9716Q98.7818 36.8179 100.731 39.387Q102.681 41.9561 102.681 45.6737Q102.681 52.0209 98.6307 55.2851Q94.5806 58.5494 87.0849 58.6098L69.9778 58.6098ZM263.813 58.6098L254.746 58.6098L237.095 29.6547L237.095 58.6098L228.027 58.6098L228.027 14.6028L237.095 14.6028L254.776 43.6184L254.776 14.6028L263.813 14.6028L263.813 58.6098ZM317.416 17.8671L317.416 25.9068L323.007 25.9068L323.007 32.3144L317.416 32.3144L317.416 48.6357Q317.416 50.4492 318.111 51.235Q318.806 52.0209 320.771 52.0209Q322.221 52.0209 323.34 51.8093L323.34 58.4285Q320.771 59.2143 318.05 59.2143Q308.862 59.2143 308.681 49.9354L308.681 32.3144L303.905 32.3144L303.905 25.9068L308.681 25.9068L308.681 17.8671L317.416 17.8671ZM79.0451 33.0398L85.755 33.0398Q92.616 32.9189 92.616 27.5692Q92.616 24.5769 90.8781 23.2622Q89.1402 21.9474 85.3923 21.9474L79.0451 21.9474L79.0451 33.0398ZM181.52 54.8015Q186.038 59.2143 193.232 59.2143Q197.312 59.2143 200.667 57.6578Q204.022 56.1012 205.987 53.3205L201.695 48.5148Q198.854 52.172 193.806 52.172Q190.542 52.172 188.411 50.2376Q186.28 48.3033 185.857 45.0994L206.682 45.0994L206.682 41.5329Q206.682 33.7652 202.828 29.5338Q198.974 25.3023 192.265 25.3023Q187.791 25.3023 184.3 27.4029Q180.809 29.5035 178.905 33.3874Q177.001 37.2713 177.001 42.1979L177.001 43.0442Q177.001 50.3887 181.52 54.8015ZM272.072 33.2816Q270.198 37.0899 270.198 41.9561L270.198 42.349Q270.198 50.147 274.414 54.6806Q278.63 59.2143 285.703 59.2143Q292.776 59.2143 296.977 54.6655Q301.178 50.1167 301.178 42.5908L301.118 40.3542Q300.634 33.4025 296.448 29.3524Q292.262 25.3023 285.643 25.3023Q280.988 25.3023 277.467 27.3878Q273.946 29.4733 272.072 33.2816ZM109.76 58.6098L109.76 25.9068L118.526 25.9068L118.526 58.6098L109.76 58.6098ZM328.727 25.9068L328.727 58.6098L337.492 58.6098L337.492 25.9068L328.727 25.9068ZM385.926 25.9068L379.881 46.248L373.806 25.9068L364.406 25.9068L375.861 58.7005L374.834 61.3905Q374.138 63.1435 372.914 63.8992Q371.69 64.6548 369.212 64.6548L367.882 64.6245L367.882 71.2437Q369.846 71.818 371.751 71.818Q378.491 71.818 381.422 65.4104L382.148 63.6876L395.296 25.9068L385.926 25.9068ZM188.018 34.1055Q189.635 32.3447 192.234 32.3447Q195.015 32.3447 196.526 33.9385Q198.038 35.5324 198.098 38.4467L198.098 39.1452L185.948 39.1452Q186.401 35.8663 188.018 34.1055ZM280.686 49.7049Q278.933 47.2378 278.933 42.5762Q278.933 37.3393 280.686 34.842Q282.439 32.3447 285.643 32.3447Q288.877 32.3447 290.66 34.8571Q292.443 37.3695 292.443 41.9405Q292.443 47.2983 290.66 49.7351Q288.877 52.172 285.703 52.172Q282.439 52.172 280.686 49.7049ZM145.281 34.6871Q146.853 36.969 146.853 41.9259Q146.853 46.0062 146.218 48.001Q144.889 52.172 140.657 52.172Q136.456 52.172 134.854 48.7264L134.854 35.8205Q136.426 32.4051 140.597 32.4051Q143.71 32.4051 145.281 34.6871ZM79.0451 39.4474L79.0451 51.3257L86.8129 51.3257Q90.0167 51.3257 91.815 49.7994Q93.6134 48.273 93.6134 45.583Q93.6134 39.5381 87.3569 39.4474L79.0451 39.4474Z" />
      </g>
    </g>
    <g id="Group-8" transform="translate(47.200195 0)">
      <path d="M21.4718 122.556C45.6505 69.2354 19.5199 2.68538 119.921 2.68538C220.323 2.68538 254.909 -15.1042 327.663 40.8912C400.415 96.8865 361.664 212.244 338.07 236.696C319.875 255.552 147.591 258.307 75.6836 246.247C-27.9702 228.864 -2.70693 175.877 21.4718 122.556Z" id="Rectangle-10" fill="#EBF0F0" fill-rule="evenodd" stroke="none" />
      <g id="Group-7" transform="translate(102.2666 144.74658)">
        <path d="M2.42376 5.39746L77.835 8.45489L75.9625 70.7166C75.9625 70.7166 45.8483 68.3737 26.8049 68.3737C7.76156 68.3737 1.99886e-06 70.7166 1.99886e-06 70.7166L2.42376 5.39746Z" id="Rectangle-15" fill="#242424" fill-rule="evenodd" stroke="#242424" stroke-width="0.5" stroke-linecap="round" stroke-linejoin="round" />
        <path d="M82.1836 8.49957L115.178 7.16187L157.595 5.44214L159.868 73.3022C159.868 73.3022 138.178 68.2106 119.325 68.975C100.473 69.7393 84.0561 70.7613 84.0561 70.7613L82.1836 8.49957Z" id="Rectangle-15-Copy" fill="#242424" fill-rule="evenodd" stroke="#242424" stroke-width="0.5" stroke-linejoin="round" />
        <path d="M8.86022 2.97526C8.86022 2.97526 16.47 -0.619743 34.5003 0.0936963C52.5315 0.807136 80.9848 5.82902 80.9848 5.82902L79.066 68.0907C79.066 68.0907 50.8812 62.1054 32.85 61.392C14.8189 60.6788 6.94141 65.237 6.94141 65.237L8.86022 2.97526Z" id="Rectangle-12" fill="#FFFFFF" fill-rule="evenodd" stroke="#242424" stroke-width="2" />
        <path d="M79.0547 5.82909C79.0547 5.82909 86.4245 1.64137 104.455 0.927935C122.486 0.214496 151.179 2.97533 151.179 2.97533L153.098 65.2371C153.098 65.2371 124.613 61.4942 106.582 62.2077C88.5506 62.9209 80.9735 68.0908 80.9735 68.0908L79.0547 5.82909Z" id="Rectangle-12-Copy" fill="#FFFFFF" fill-rule="evenodd" stroke="#242424" stroke-width="2" />
        <path d="M76.2086 68.5196C76.2086 68.5196 77.8832 69.0298 79.6657 68.92C81.4483 68.8101 83.3388 68.0801 83.3388 68.0801L85.2192 84.7389L80.0208 80.9881L75.1582 84.7389L76.2086 68.5196Z" id="Rectangle-13" fill="#A34444" fill-rule="evenodd" stroke="#242424" stroke-width="2" stroke-linejoin="round" />
      </g>
      <path d="M119.426 69.2268L224.19 69.2268Q224.338 69.2268 224.484 69.2412Q224.631 69.2557 224.775 69.2844Q224.92 69.3132 225.061 69.3559Q225.202 69.3987 225.338 69.4551Q225.474 69.5115 225.604 69.5809Q225.734 69.6504 225.856 69.7322Q225.979 69.8141 226.093 69.9076Q226.207 70.001 226.311 70.1052Q226.415 70.2094 226.509 70.3232Q226.602 70.4371 226.684 70.5596Q226.766 70.6821 226.835 70.8121Q226.905 70.942 226.961 71.0781Q227.017 71.2142 227.06 71.3552Q227.103 71.4962 227.132 71.6407Q227.16 71.7852 227.175 71.9318Q227.189 72.0785 227.189 72.2258L227.189 99.1277Q227.189 99.275 227.175 99.4216Q227.16 99.5682 227.132 99.7127Q227.103 99.8572 227.06 99.9982Q227.017 100.139 226.961 100.275Q226.905 100.411 226.835 100.541Q226.766 100.671 226.684 100.794Q226.602 100.916 226.509 101.03Q226.415 101.144 226.311 101.248Q226.207 101.352 226.093 101.446Q225.979 101.539 225.856 101.621Q225.734 101.703 225.604 101.773Q225.474 101.842 225.338 101.898Q225.202 101.955 225.061 101.998Q224.92 102.04 224.775 102.069Q224.631 102.098 224.484 102.112Q224.338 102.127 224.19 102.127L119.426 102.127Q119.278 102.127 119.132 102.112Q118.985 102.098 118.841 102.069Q118.696 102.04 118.555 101.998Q118.414 101.955 118.278 101.898Q118.142 101.842 118.012 101.773Q117.882 101.703 117.76 101.621Q117.637 101.539 117.523 101.446Q117.409 101.352 117.305 101.248Q117.201 101.144 117.107 101.03Q117.014 100.916 116.932 100.794Q116.85 100.671 116.781 100.541Q116.711 100.411 116.655 100.275Q116.599 100.139 116.556 99.9982Q116.513 99.8572 116.484 99.7127Q116.456 99.5682 116.441 99.4216Q116.427 99.275 116.427 99.1277L116.427 72.2258Q116.427 72.0785 116.441 71.9318Q116.456 71.7852 116.484 71.6407Q116.513 71.4962 116.556 71.3552Q116.599 71.2142 116.655 71.0781Q116.711 70.942 116.781 70.8121Q116.85 70.6821 116.932 70.5596Q117.014 70.4371 117.107 70.3233Q117.201 70.2094 117.305 70.1052Q117.409 70.001 117.523 69.9075Q117.637 69.8141 117.76 69.7322Q117.882 69.6504 118.012 69.5809Q118.142 69.5115 118.278 69.4551Q118.414 69.3987 118.555 69.3559Q118.696 69.3132 118.841 69.2844Q118.985 69.2557 119.132 69.2412Q119.278 69.2268 119.426 69.2268Z" id="Rectangle-11" fill="#FFFFFF" fill-rule="evenodd" stroke="#242424" stroke-width="2" />
      <path d="M127.439 83.9476C127.439 80.1622 130.508 77.0935 134.294 77.0935C138.079 77.0935 141.148 80.1622 141.148 83.9476C141.148 87.7331 138.079 90.8018 134.294 90.8018C130.508 90.8018 127.439 87.7331 127.439 83.9476Z" id="Ellipse" fill="#82DB78" fill-rule="evenodd" stroke="#000000" stroke-width="2" />
      <path d="M147.893 81.4082L213.692 81.4082" id="Line-2" fill="#5ED885" fill-rule="evenodd" stroke="#242424" stroke-width="2" stroke-linecap="round" />
      <path d="M144.747 89.2749L205.063 89.2749" id="Line-2-Copy" fill="#5ED885" fill-rule="evenodd" stroke="#242424" stroke-width="2" stroke-linecap="round" />
      <path d="M175.065 42.48L237.924 42.48Q238.023 42.48 238.12 42.4896Q238.218 42.4992 238.314 42.5184Q238.411 42.5376 238.505 42.5661Q238.599 42.5946 238.689 42.6321Q238.78 42.6697 238.867 42.716Q238.953 42.7623 239.035 42.8169Q239.117 42.8714 239.193 42.9337Q239.268 42.996 239.338 43.0655Q239.407 43.1349 239.47 43.2108Q239.532 43.2867 239.587 43.3684Q239.641 43.4501 239.687 43.5367Q239.734 43.6233 239.771 43.714Q239.809 43.8047 239.837 43.8987Q239.866 43.9927 239.885 44.089Q239.904 44.1853 239.914 44.283Q239.923 44.3808 239.923 44.479L239.923 60.3395Q239.923 60.4377 239.914 60.5355Q239.904 60.6332 239.885 60.7295Q239.866 60.8258 239.837 60.9198Q239.809 61.0138 239.771 61.1045Q239.734 61.1952 239.687 61.2819Q239.641 61.3685 239.586 61.4501Q239.532 61.5318 239.47 61.6077Q239.407 61.6836 239.338 61.753Q239.268 61.8225 239.193 61.8848Q239.117 61.9471 239.035 62.0016Q238.953 62.0562 238.867 62.1025Q238.78 62.1488 238.689 62.1864Q238.599 62.224 238.505 62.2525Q238.411 62.281 238.314 62.3001Q238.218 62.3193 238.12 62.3289Q238.023 62.3385 237.924 62.3385L175.065 62.3385Q174.967 62.3385 174.869 62.3289Q174.772 62.3193 174.675 62.3001Q174.579 62.281 174.485 62.2525Q174.391 62.224 174.3 62.1864Q174.21 62.1488 174.123 62.1025Q174.036 62.0562 173.955 62.0016Q173.873 61.9471 173.797 61.8848Q173.721 61.8225 173.652 61.753Q173.582 61.6836 173.52 61.6077Q173.458 61.5318 173.403 61.4501Q173.349 61.3685 173.302 61.2819Q173.256 61.1952 173.219 61.1045Q173.181 61.0138 173.152 60.9198Q173.124 60.8258 173.105 60.7295Q173.086 60.6332 173.076 60.5355Q173.066 60.4377 173.066 60.3395L173.066 44.479Q173.066 44.3808 173.076 44.283Q173.086 44.1853 173.105 44.089Q173.124 43.9927 173.152 43.8987Q173.181 43.8047 173.219 43.714Q173.256 43.6233 173.302 43.5367Q173.349 43.4501 173.403 43.3684Q173.458 43.2867 173.52 43.2108Q173.582 43.1349 173.652 43.0655Q173.721 42.996 173.797 42.9337Q173.873 42.8714 173.955 42.8169Q174.036 42.7623 174.123 42.716Q174.21 42.6697 174.3 42.6321Q174.391 42.5946 174.485 42.5661Q174.579 42.5376 174.675 42.5184Q174.772 42.4992 174.869 42.4896Q174.967 42.48 175.065 42.48Z" id="Rectangle-16-Copy-2" fill="#FFFFFF" fill-rule="evenodd" stroke="#242424" stroke-width="2" />
      <path d="M179.36 49.7634C179.36 47.4785 181.213 45.6262 183.498 45.6262C185.782 45.6262 187.635 47.4785 187.635 49.7634C187.635 52.0483 185.782 53.9006 183.498 53.9006C181.213 53.9006 179.36 52.0483 179.36 49.7634Z" id="Ellipse-Copy-2" fill="#82DB78" fill-rule="evenodd" stroke="#242424" stroke-width="2" />
      <path d="M191.947 48.8546L231.664 48.8546" id="Line-2-Copy-4" fill="#5ED885" fill-rule="evenodd" stroke="#242424" stroke-width="0.5" stroke-linecap="round" />
      <path d="M191.947 53.5746L228.355 53.5746" id="Line-2-Copy-5" fill="#5ED885" fill-rule="evenodd" stroke="#242424" stroke-width="0.5" stroke-linecap="round" />
      <path d="M171.346 108.56L255.573 108.56Q255.72 108.56 255.867 108.575Q256.014 108.589 256.158 108.618Q256.303 108.646 256.444 108.689Q256.585 108.732 256.721 108.788Q256.857 108.845 256.987 108.914Q257.117 108.984 257.239 109.065Q257.362 109.147 257.476 109.241Q257.59 109.334 257.694 109.438Q257.798 109.543 257.891 109.657Q257.985 109.77 258.067 109.893Q258.148 110.015 258.218 110.145Q258.287 110.275 258.344 110.411Q258.4 110.547 258.443 110.688Q258.486 110.829 258.514 110.974Q258.543 111.118 258.558 111.265Q258.572 111.412 258.572 111.559L258.572 132.361Q258.572 132.508 258.558 132.655Q258.543 132.801 258.514 132.946Q258.486 133.09 258.443 133.231Q258.4 133.372 258.344 133.508Q258.287 133.645 258.218 133.774Q258.148 133.904 258.067 134.027Q257.985 134.149 257.891 134.263Q257.798 134.377 257.694 134.481Q257.59 134.586 257.476 134.679Q257.362 134.772 257.239 134.854Q257.117 134.936 256.987 135.006Q256.857 135.075 256.721 135.131Q256.585 135.188 256.444 135.231Q256.303 135.273 256.158 135.302Q256.014 135.331 255.867 135.345Q255.72 135.36 255.573 135.36L171.346 135.36Q171.198 135.36 171.052 135.345Q170.905 135.331 170.761 135.302Q170.616 135.273 170.475 135.231Q170.334 135.188 170.198 135.131Q170.062 135.075 169.932 135.006Q169.802 134.936 169.68 134.854Q169.557 134.772 169.443 134.679Q169.329 134.586 169.225 134.481Q169.121 134.377 169.027 134.263Q168.934 134.149 168.852 134.027Q168.77 133.904 168.701 133.774Q168.631 133.645 168.575 133.508Q168.519 133.372 168.476 133.231Q168.433 133.09 168.404 132.946Q168.376 132.801 168.361 132.655Q168.347 132.508 168.347 132.361L168.347 111.559Q168.347 111.412 168.361 111.265Q168.376 111.118 168.404 110.974Q168.433 110.829 168.476 110.688Q168.519 110.548 168.575 110.411Q168.631 110.275 168.701 110.145Q168.77 110.015 168.852 109.893Q168.934 109.77 169.027 109.657Q169.121 109.543 169.225 109.438Q169.329 109.334 169.443 109.241Q169.557 109.147 169.68 109.065Q169.802 108.984 169.932 108.914Q170.062 108.845 170.198 108.788Q170.334 108.732 170.475 108.689Q170.616 108.646 170.761 108.618Q170.905 108.589 171.052 108.575Q171.198 108.56 171.346 108.56Z" id="Rectangle-16-Copy-3" fill="#FFFFFF" fill-rule="evenodd" stroke="#242424" stroke-width="2" />
      <path d="M176.213 118.863C176.213 115.78 178.713 113.28 181.796 113.28C184.88 113.28 187.379 115.78 187.379 118.863C187.379 121.947 184.88 124.447 181.796 124.447C178.713 124.447 176.213 121.947 176.213 118.863Z" id="Ellipse-Copy-3" fill="#82DB78" fill-rule="evenodd" stroke="#242424" stroke-width="2" />
      <path d="M193.52 120.233L247.119 120.233" id="Line-2-Copy-6" fill="#82DB78" fill-rule="evenodd" stroke="#242424" stroke-width="2" stroke-linecap="round" />
      <path d="M193.52 126.527L242.652 126.527" id="Line-2-Copy-7" fill="#82DB78" fill-rule="evenodd" stroke="#242424" stroke-width="2" stroke-linecap="round" />
    </g>
  </g>
</svg>